<svg viewBox="0 0 1265.06 1321.55" xmlns="http://www.w3.org/2000/svg"><g fill="#003014"><path d="m618.58 204.29c-1.31.36-1.39 1-1 14.7.29 7.86.73 21.32 1 29.91l.51 15.65-10.48-14.55c-5.82-8-15.43-21.32-21.4-29.69l-10.84-15.06-5.46.43c-3.06.29-5.6.59-5.75.66-.29.29 2 80.7 2.48 85.29l.36 3.86h13.75v-6c0-3.28-.36-16.3-.8-29s-.65-23.5-.51-23.87 9.76 12.37 21.33 28.46l21.1 29.11 5.46-.51a33.63 33.63 0 0 0 5.68-.73c.36-.36-2-85.36-2.48-87.55-.29-1.53-.65-1.6-6-1.53-3.02.06-6.22.28-6.95.42z"/><path d="m647.69 210.11c-.29 3.13-.66 6.55-.8 7.64-.29 1.9-.15 2 2 2.11 1.24 0 6.63.44 11.79.88 9.46.87 9.46.87 9.68 2.84.15 1-1.16 17.68-2.76 37s-2.91 35.15-2.77 35.3 3.35.44 7.13.73l6.92.43 3.12-37.04c1.74-20.31 3.2-37 3.27-37.05s5.39.37 11.72.95 11.79.8 12.08.44c.87-.95 1.67-14.78.87-14.78-.44 0-14-1.16-30.05-2.54s-29.91-2.55-30.64-2.55c-.91.04-1.2 1.06-1.56 5.64z"/><path d="m501.92 212.81c-10.26 2.54-19.21 10-24.16 20.23a50.8 50.8 0 0 0 -4.8 25.32c2.47 28.38 18 46.5 39.66 46.58 18.85 0 32.6-10.34 37.55-28.39 2-7.05 1.75-22.41-.36-30.2-6.81-25.1-26.27-38.78-47.89-33.54zm19.08 16.59c7.28 3.71 12.73 11.35 15.35 21.61 1.68 6.77 1.17 19.5-1 24.31-3.85 8.59-10.91 13.46-20.44 14.19-7 .44-11.36-1.09-16.74-6.11-7.64-7.06-11.36-17.54-10.85-30.5.44-10 3.35-16.3 9.76-21.25s16.7-5.89 23.92-2.25z"/><path d="m748.84 261.35c-6.18 24.59-10.55 43.22-10.19 43.51.59.59 12.88 3.79 13.1 3.5 0-.08 1.68-6.41 3.57-14s3.71-14.11 4-14.4c.44-.51 13.68 2.62 14.19 3.27.08.15 3.28 7.93 7.06 17.32l6.91 17 7.94 2c4.36 1.09 8 1.82 8.22 1.67s-3.06-8.22-7.13-17.9-7.13-17.83-6.91-18.2 1.45-.65 2.76-.65c6.7 0 14.48-5.39 18.41-12.88 5.17-9.61 6-21.91 2.26-30.2-2.18-4.66-7.06-10-11.28-12.08-2.62-1.38-38.72-11.06-41-11.06-.75.09-3.98 11.75-11.91 43.1zm33.7-21.18c14.41 3.64 17.39 5.75 18.12 13 .72 7.79-3.5 14.92-9.83 16.82-2.76.87-4 .65-15.43-2.19-6.84-1.67-12.44-3.2-12.44-3.35 0-2.18 7-27.21 7.57-27.21s5.82 1.33 12.01 2.93z"/><path d="m436.21 228.45-7.64 2.62-5.24 21.4c-2.84 11.71-5.39 21.54-5.61 21.76s-2.11-1.1-4.22-2.91c-20.81-17.54-28.09-23.66-29.18-24.53s-2.26-.8-8.95 1.38c-4.15 1.39-7.57 2.77-7.57 3.21 0 .65 26.93 84.27 27.29 84.63.15.22 12.81-4 13.24-4.44.15-.14-4.14-13.9-9.6-30.64s-9.83-30.49-9.68-30.56 7.93 6.33 17.32 14.26 17.47 14.37 17.83 14.48a3.91 3.91 0 0 0 1.6-.58c.44-.29 3.42-10.4 6.55-22.48s5.82-21.84 6-21.69 4.58 13.75 10 30.27 9.89 30.13 10.11 30.35c.37.36 13.47-3.49 13.47-4s-27.15-83.62-27.58-84.35c-.35-.58-2.9-0-8.14 1.82z"/><path d="m838.28 286.82c-17.9 19.18-32.46 35.07-32.28 35.18s3.35 1.45 7.13 3l6.91 2.77 6-6.33c3.35-3.5 6.48-6.34 7-6.34s8.8 3.28 18.41 7.14l17.47 7.13.21 9.17.22 9.17 7.13 2.91 7.14 2.84.43-17.91c.29-9.82.73-31.51.95-48.1l.51-30.2-6.84-2.77c-3.79-1.45-7.06-2.69-7.35-2.69s-15.14 15.74-33.04 35.03zm32.46 5.31c-.37 10.7-.8 19.65-1 19.87-.58.51-25.25-9.32-25.25-10.12 0-.65 26.34-29.76 26.7-29.47.06.14-.19 8.95-.45 19.72z"/><path d="m319 272.92c-13.83 6.76-25 12.59-25 12.88s6 12.88 13.32 27.87 16 33 19.36 39.81l6 12.51 9.67-4.58c5.32-2.55 17-8.22 25.84-12.52l16.28-7.89-3.79-7.35-3.78-7.42-19.07 9.31c-13.32 6.48-19.28 9.1-19.65 8.52-1.24-1.82-8.51-17.25-8.15-17.47.15-.07 8.37-4.15 18.27-8.88s18-8.95 18-9.24c0-1.09-6-13.68-6.62-13.68-.29 0-8.59 3.93-18.48 8.73s-18.12 8.73-18.27 8.73c-.36 0-9-17.32-9-18 0-.36 8.51-4.66 18.92-9.68s18.92-9.31 18.92-9.61c0-1.09-6.48-14.41-7.06-14.33-.27-.01-11.84 5.59-25.71 12.29z"/><path d="m925.39 286.16c-10.92 20.67-36.53 70.37-36.53 71 0 .94 11.86 6.84 12.37 6.25.73-.8 40.75-78.16 40.75-78.74s-11.06-6.67-11.86-6.67c-.22 0-2.33 3.72-4.73 8.16z"/><path d="m959.81 297.73c-20.74 32.82-45.41 73.07-45 73.43s10.48 6.62 22.63 14.19c12.66 7.86 22.34 13.39 22.71 13s2.25-3.35 4.29-6.55l3.64-6-16.74-10.33c-16.08-10-16.66-10.41-15.72-11.94.58-.8 8.66-13.82 18-28.82s17.75-28.52 18.63-30l1.75-2.61-4.58-2.69c-2.48-1.53-5.24-3.21-6.11-3.79-1.46-.94-1.68-.8-3.5 2.11z"/><path d="m256.82 307.85c-3.49 1.45-35.66 21.83-35.66 22.63s47.74 74.08 48.4 74.52c.36.22 3.27-1.24 6.47-3.27l5.82-3.72-7-10.69c-8.37-12.74-9.39-14.49-8.95-14.92.22-.22 2.91-2 6-4l5.67-3.72 4.88 1.82c17.17 6.55 29.84 11.21 30.27 11.21 1.24 0 13.61-8.95 13.1-9.46-.36-.29-8.51-3.35-18.12-6.91s-17.54-6.41-17.61-6.48a13.19 13.19 0 0 1 2-3.2c4.36-6 5.38-13.25 2.84-21.4-2.77-8.88-10.26-18.05-17.83-21.68-5.1-2.48-15.04-2.84-20.28-.73zm15.36 15.21c3.85 1.74 7.35 6 8.73 10.77 2.18 7.57.14 10.62-12.81 19.06-5.6 3.64-10.41 6.63-10.77 6.63s-15.43-22.71-15.43-23.44c0-.58 18.92-12.73 21.11-13.6a11.6 11.6 0 0 1 9.17.58z"/><path d="m992.12 366.28-17.9 43.09 3.35 3.05c6.11 5.53 4.87 5.75 19.14-3.05 6.91-4.3 17.76-11.43 24.09-15.87s11.64-7.86 11.71-7.71-2.47 6.33-5.75 13.75c-7.71 17.18-16.59 40.1-15.86 40.76.29.21 2.4 2 4.66 3.93l4.15 3.42 38.78-25.33c21.4-14 39-25.54 39.23-25.76.43-.51-10.7-10.12-11.72-10.12-.36 0-12.81 8.52-27.58 18.92s-26.93 18.71-26.93 18.49 5.75-13.61 12.74-29.77 13-29.83 13.17-30.49c.44-1-1.53-3.2-5.6-6-1.09-.8-4.88 1.53-28.67 17.69-15.07 10.26-27.51 18.48-27.66 18.33s6-13.75 13.46-30.34l13.69-30.13-5.9-5a69.63 69.63 0 0 0 -6.33-5c-.22-.01-8.39 19.42-18.27 43.14z"/><path d="m174.22 368c-3 2.69-5.38 5.24-5.31 5.68.29 1.23 32.31 88.78 32.6 89.07s2.91-2 6-4.66l5.82-4.94-2.91-8c-1.52-4.44-2.76-8.44-2.62-8.88.3-1.23 28.75-25.83 29.77-25.83.51 0 4.22 1.82 8.37 4l7.42 3.93 5.89-5.17 6-5.09-42.05-22.47c-23.07-12.37-42.36-22.48-42.72-22.41s-3.27 2.18-6.26 4.77zm31 24c9.32 5.16 17 9.53 16.81 9.82-.36 1.24-20.44 18.05-20.95 17.54s-6.92-17.61-13.61-35.73c-.15-.44-.08-.88.22-.88s8.15 4.25 17.53 9.3z"/><path d="m521.64 399.11a16.7 16.7 0 0 0 -3.2 4.73c-.94 2-2.18 3.71-2.69 3.71a14 14 0 0 1 -3.86-1.46c-6.69-3.42-12.15-.36-13.46 7.5-.44 2.18-1 3.13-2.77 4.07a22.26 22.26 0 0 0 -4.65 3.57c-4.08 4.15-3.21 10.33 2.76 18.7a16.35 16.35 0 0 1 2.55 6.33c.51 3.42.43 3.5-1.46 3.5s-1.86.24-1.86 3.24v3.28h-12.4v3.27c0 3-.15 3.28-1.82 3.28h-1.78v19.86c0 19-.07 20-1.46 21.25-3.05 2.77-1 9.83 2.77 9.83a5.74 5.74 0 0 0 2.77-1.1 9.31 9.31 0 0 1 4.29-1.09c2.55 0 3.27.44 5.31 2.91l2.4 2.92h-15.76c-14.62 0-15.71.07-15.35 1.23.14.73 2.69 12.52 5.6 26.2l5.32 25h11.35v203.76l38.06-.15 38-.22.36-73.5.36-73.5 1.68-5.46c6.33-20.59 18.34-34.71 35.22-41.4 8.44-3.42 15.72-4.66 26.78-4.66s17.83 1.45 25.84 5.24c16.37 7.71 28.6 25.61 33.4 49.12 1 4.73 1.16 14.92 1.16 75.1v69.65l20.89-.44c11.42-.29 28.67-.51 38.2-.51h17.31v-203h5.75c4.88 0 5.83-.22 6.19-1.31.73-2.4 11.35-49.56 11.35-50.36 0-.43-5-.72-14.92-.72h-14.87l1.45-2.7a14.08 14.08 0 0 0 1.46-3.49c.07-.36 1.52-1.38 3.27-2.26 2.77-1.31 3.42-1.38 4.15-.51a3.07 3.07 0 0 0 2.62.8c2.25-.29 3.42-3.2 2.69-6.84-.36-2-.8-2.62-2.62-3l-2.11-.44v-37.64l-2.11-2.33-2.11-2.4-53.2-.22c-46.72-.14-53.49 0-55.38.95-4.07 2.11-4.36 3.56-4.36 23.65 0 17-.08 18.26-1.24 18.05s-1.31-1.9-1.53-20.38l-.15-20.23-22.41-.15-22.42-.22-.22-2.76-.22-2.69h-40.64v3.64h-14.55v-6.55h-18.12l-.22 3.05-.22 3.13-7.71.22-7.72.22-.43-4.59c-.51-5.75.21-7.13 3.71-7.13 4.29 0 7.57-1.24 11.79-4.36 4.58-3.43 6.62-3.64 11.35-1.1 5 2.62 7.93 2.41 11-.8l2.47-2.69 5.46 1.24c9.17 2 13.32 1.45 17.17-2.26 2.55-2.47 5-8.73 5-13.1 0-2.84-.36-3.64-2.76-6a13.78 13.78 0 0 0 -7.06-3.93c-2.4-.65-5.6-1.53-7.06-2-2.18-.58-3.06-1.39-4.73-4.44-2.62-4.73-5-6.55-9.61-7-4.87-.43-6.47.07-10.11 3.2l-3.13 2.7-2.33-2.19c-4.21-3.93-7.56-4.86-10.47-2.82zm6.33 4.51c2.41 2.62 5.61 4.15 7.57 3.64a16.92 16.92 0 0 0 4.73-3c5-4.22 10.26-3.2 13.39 2.55 2.55 4.66 4.73 6.33 9.76 7.28s10.11 3.34 11.2 5.31c1.75 3.27-1.53 12.08-5.24 14-2.76 1.46-5.24 1.38-12.66-.36-3.42-.8-6.7-1.24-7.28-1a8.19 8.19 0 0 0 -2.69 2.91c-1.82 3-3.13 3.06-7.93.66-5.39-2.7-9.24-2.48-13.54.8s-7.49 4.59-11.06 4.59-6.4 2.19-7.42 5.9c-.73 2.69-.95 2.84-3.57 2.84h-2.76l-.44-4c-.29-3.2-1.09-5.09-3.86-9.17-4.29-6.47-4.95-10.33-2.25-12.88a22.24 22.24 0 0 1 4.22-2.91c1.89-.94 2.69-2 3.42-4.51 2.47-8.3 3.78-9.31 9-6.55 5.53 2.91 8.23 2.11 10.92-3.2 2.78-5.52 3.66-5.89 6.52-2.9zm-19.86 52.83-.22 3.13-5.39.22c-6 .22-6.62-.15-6.62-4.08v-2.33h12.45zm34.35-.73c0 3.93-.66 4.3-6.63 4.08l-5.38-.22-.22-3.13-.22-3.06h12.45zm56 13v13.78h-36.35v-27.65h36.38zm-105.46-9.21a4.83 4.83 0 0 0 1.89 2.54c1.53 1.24 3 1.53 7.21 1.53s5.67-.29 7.2-1.53a4.83 4.83 0 0 0 1.89-2.54c0-.8 1.53-1 8-1s8 .22 8 1a4.86 4.86 0 0 0 1.9 2.54c1.6 1.24 3 1.53 7.35 1.53 4.73 0 5.6-.22 7.13-1.82a5.87 5.87 0 0 0 1.82-2.54c0-.44 2.69-.73 7.27-.73h7.28v24.74h-77.16v-24.74h5.1c3.93 0 5.12.22 5.12 1.02zm268.8.49 1.89 1.45v42.94l-1.82 1.75c-2.4 2.47-3.42 2.25-5.1-1.31a10.78 10.78 0 0 0 -19.64 0 10.51 10.51 0 0 1 -1.82 3 10.27 10.27 0 0 1 -1.82-3c-2.19-4.59-5.53-6.55-10.77-6.19-3.35.29-4.59.73-6.33 2.4a14.61 14.61 0 0 0 -3.06 4.51l-.87 2.4h-11.79l-.88-2.4a14.75 14.75 0 0 0 -3-4.51c-1.75-1.67-3-2.11-6.34-2.4-5.16-.36-8.51 1.53-10.77 6l-1.45 2.91-1.46-2.91c-4.22-8.37-15.42-8.3-19.72.07-1.24 2.55-1.67 2.84-3 2.26-2.84-1.24-3.13-3.35-3.13-24.45v-20.17l1.82-2 1.74-1.89h52.69c52.22.03 52.73.03 54.63 1.54zm-118.33 23.74.14 23.51h-42.93v-23.15c0-12.73.21-23.43.5-23.65s9.83-.43 21.25-.36l20.82.22zm-163.6.29c0 12.45-.22 18.78-.73 18.49s-.72-7.28-.72-18.49c0-15.86.21-19 1.23-19 .15-.03.22 8.52.22 18.97zm77.72 12.08c3.93 6 7.43 11.21 7.72 11.65.36.72-.66.94-4.22.94h-4.81v-4.36c0-7.14-3-12.3-8.87-15.36a16.87 16.87 0 0 0 -22.2 6.4c-1.6 2.7-2 4.37-2 8 0 4.22-.14 4.58-1.6 4.58s-1.67-.36-1.67-4c0-13.9-14.49-21.47-26.35-13.75a15.77 15.77 0 0 0 -6.77 13.17c0 4.51 0 4.58-2 4.58h-2v-22.55h67.68zm24.89.95v11.64h-14.19l-6.18-9.6c-3.43-5.24-6.77-10.48-7.5-11.65l-1.38-2h29.25zm16-.73v10.92h-14.54v-21.84h14.55zm-92.06-5c8.08 2.26 11.94 10.26 8.66 18-1.09 2.62-1.16 2.62-1.82 1a2.11 2.11 0 0 0 -4.14.44 1.83 1.83 0 0 0 1.45 2.26c1.68.58 1.6.65-.87 2.18-5.46 3.42-14.85.8-17.76-4.88a13.28 13.28 0 0 1 7.21-18.7c3.57-1.27 3.72-1.27 7.28-.32zm39.58 1.22c5.53 2.54 8.08 10.55 5.46 16.73-1.09 2.62-1.16 2.62-1.82 1a2.12 2.12 0 0 0 -4.15.44 1.85 1.85 0 0 0 1.51 2.28c1.67.58 1.6.65-.87 2.18-3.72 2.33-10.41 1.89-14.12-.87-8.44-6.48-6.41-19.07 3.64-22.78 3.1-1.09 6.59-.8 10.35 1.02zm124.59 10.33c1.75.95 3.57 4.44 3.57 6.84 0 2.77-3.5 6.26-6.7 6.77-2.4.36-3 .14-5.31-2.18-1.6-1.61-2.55-3.28-2.55-4.44 0-2.4 1.75-6 3.42-6.92a10.45 10.45 0 0 1 7.59-.07zm24 1.38c3.13 3.13 2.91 6.7-.44 10-2.33 2.32-2.91 2.54-5.31 2.18-3.21-.51-6.7-4-6.7-6.77 0-2.33 1.82-5.82 3.42-6.77a10 10 0 0 1 4.08-.8 6.19 6.19 0 0 1 4.99 2.16zm33.11-.8c3.64 2.91 4.15 6.92 1.31 10.26-4.66 5.53-12.66 2.33-12.66-5.09 0-3.35 3.49-6.48 7.05-6.48a7.52 7.52 0 0 1 4.34 1.31zm22.92-.58c1.75.95 3.57 4.44 3.57 6.84 0 2.77-3.5 6.26-6.7 6.77-2.4.36-3 .14-5.31-2.18-1.6-1.61-2.55-3.28-2.55-4.44 0-2.4 1.75-6 3.42-6.92a10.45 10.45 0 0 1 7.61-.07zm-99.08 5.12a15.23 15.23 0 0 0 3.86 2.19c.29 0 .58.58.58 1.24a9.15 9.15 0 0 0 1.46 3.63l1.45 2.41h-30.56l1.45-2.41a9.13 9.13 0 0 0 1.46-4c0-1.53.22-1.6 7.28-1.6h7.27v-1.82c-0-2.5 1.75-2.36 5.75.36zm-42.13 2.77a12.85 12.85 0 0 0 1.45 4l1.46 2.7h-27.73l1.46-1.82a11.24 11.24 0 0 0 1.89-4l.51-2.18h10.48c9.53-.04 10.48.11 10.48 1.27zm7.64.29c1.24 2.77 6.4 2.62 7.28-.14.43-1.46 3.27-2.11 3.27-.73 0 1.89-2.33 4.95-4.29 5.82a7.55 7.55 0 0 1 -9.9-5c-.36-1.31-.22-1.6 1.24-1.6a2.52 2.52 0 0 1 2.4 1.59zm-105.52-.14c.22.36.07.72-.29.72a.79.79 0 0 1 -.8-.72c0-.44.14-.73.29-.73s.58.26.8.7zm36.38 0c.22.36.08.72-.29.72a.8.8 0 0 1 -.8-.72c0-.44.15-.73.29-.73s.59.26.8.7zm132.16 3.78 1.38 2.77h-6.55l1.46-2.7a16.77 16.77 0 0 0 1.53-3.85c0-.95.07-.95.43 0 .22.55 1.02 2.29 1.75 3.75zm32.68-3.27a9.11 9.11 0 0 0 1.45 3.57l1.46 2.41h-18.2l1.46-2.41a9.11 9.11 0 0 0 1.45-3.63c0-1.1.81-1.24 6.19-1.24s6.19.17 6.19 1.27zm23.28 0a9.15 9.15 0 0 0 1.46 3.63l1.45 2.41h-7.27l1.45-2.7a13.41 13.41 0 0 0 1.46-3.64.89.89 0 0 1 .73-.94c.43-.03.69.55.69 1.21zm-169.19 1.45a8 8 0 0 0 1.6 3.28c1.09 1.23.65 1.31-8.37 1.31h-9.61l2.4-3.21 2.33-3.27h5.53c5.53-.1 5.61-.1 6.12 1.86zm6.91-.87a5.47 5.47 0 0 0 6.55 0c.94-1.17 3.64-1.53 3.64-.44 0 1.53-3.2 4.44-5.39 4.88-3.56.65-8.44-2.33-8.44-5.1 0-.9 2.77-.35 3.64.65zm-46.65 2.59 2.4 2.84h-15.5l2.33-2.92c2.11-2.54 2.69-2.91 5.31-2.83s3.36.51 5.46 2.91zm249.69 9.89c0 .66-7.86 35.59-8.44 37.48-.37 1.24-7.94 1.31-145.41 1.31h-145l-.94-4.58c-.43-2.48-1-5.39-1.31-6.55l-.36-2h134c88.85 0 134-.22 134-.72s-45.19-.73-134.19-.73h-134.14l-2.33-11.14c-1.31-6-2.55-11.64-2.7-12.37-.36-1.16 7.28-1.24 153.19-1.24 84.49.05 153.63.25 153.63.54zm-165.56 46.43c-7.93 1.46-11.21 2.48-17.69 5.53a59 59 0 0 0 -19.21 13.76l-4 4.37h-32.09c-21 0-32.17.21-32.17.72s11.06.73 31.73.73h31.73l-1.53 2.33c-8.08 12.23-12.44 27.87-12.44 44.32v8.66h-17.11c-10.91 0-17.1.29-17.1.73s6.19.72 17.1.72h17.11v66.21h-24.38c-15.8 0-24.38.29-24.38.73s8.58.72 24.38.72h24.38v29.11h-19.65c-12.59 0-19.65.29-19.65.73s7.06.73 19.65.73h19.65v18.19h-67v-83.67h26.57c17.24 0 26.56-.29 26.56-.73s-9.32-.72-26.56-.72h-26.53v-61.09h26.57c17.24 0 26.56-.29 26.56-.73s-9.32-.73-26.56-.73h-26.57v-51.71l63.9.07c54.29.1 63.09.22 58.73 1.02zm145.54 56v56.76l-24.16.22c-15.13.07-24.23.44-24.23.87s9.1.8 24.23.88l24.16.22v29.83l-27.77.3c-17.53.07-27.87.44-27.87.87s10.34.81 27.87.88l27.8.22.22 25c.15 19.57 0 25-.73 25.25-.5.15-15.79.36-33.83.51l-33 .29v-18.02h18.92c12.15 0 18.92-.29 18.92-.73s-6.77-.73-18.92-.73h-18.92v-93.84h17.83c11.42 0 17.83-.29 17.83-.72s-6.41-.73-17.83-.73h-17.83v-10.77a106.83 106.83 0 0 0 -.73-14c-.44-1.82-.87-4-1.09-5l-.36-1.6h29.47c25.83 0 29.47-.15 29.47-1.09s-3.56-1.1-29.62-1l-29.69.22-1.91-5.33a84.42 84.42 0 0 0 -7.57-16.59l-1.87-3.09h32c21.32 0 32.09-.22 32.09-.73s-10.84-.72-32.53-.72l-32.45.07-3.21-3.86c-8.07-9.9-18.92-16.37-32.6-19.5-5.75-1.31-5.31-1.31 56-1.24l61.85.15z"/><path d="m564.29 466.86v7.64h11.64v-15.28h-11.64zm9.46 0v5.46h-7.28v-10.92h7.28z"/><path d="m578.12 466.86v7.64h11.64v-15.28h-11.64zm9.46 0v5.46h-7.28v-10.92h7.28z"/><path d="m591.94 466.86v7.64h5.82v-15.28h-5.82zm3.64 0c0 3.13-.29 5.46-.73 5.46s-.72-2.33-.72-5.46.29-5.46.72-5.46.73 2.33.73 5.46z"/><path d="m655.26 474.13v7.65h11.64v-15.29h-11.64zm9.46 0v5.46h-7.28v-10.91h7.28z"/><path d="m672 474.13v7.65h37.85v-15.29h-37.85zm35.66 0v5.46h-33.48v-10.91h33.47z"/><path d="m717.84 474.13v7.65h37.84v-15.29h-37.84zm35.66 0v5.46h-33.5v-10.91h33.5z"/><path d="m494 495.89c-.73 1.9.29 3.5 2 3.21 1.23-.15 1.67-.73 1.67-2s-.44-1.89-1.67-2a1.79 1.79 0 0 0 -2 .79zm2.26 1.17c.21.36.07.73-.3.73a.81.81 0 0 1 -.8-.73c0-.44.15-.73.29-.73s.55.29.8.73z"/><path d="m509 496c-1.24 1.53-.36 3.27 1.75 3.27s3-1.89 1.82-3.35c-1.12-1.34-2.42-1.34-3.57.08z"/><path d="m500.25 500c-2 2-2 6.11.14 7.57 3.57 2.55 8.08.29 8.08-3.93a4.85 4.85 0 0 0 -8.22-3.64zm4.36 3.64c0 .8-.29 1.45-.65 1.45a1.49 1.49 0 0 1 -1.17-2.18c.73-1.27 1.82-.83 1.82.7z"/><path d="m494 509.72c-.73 1.89.29 3.49 2 3.2 1.23-.14 1.67-.72 1.67-2s-.44-1.9-1.67-2a1.78 1.78 0 0 0 -2 .8zm2.62 1.17a.73.73 0 0 1 -.73.72.78.78 0 0 1 -.73-.72.73.73 0 0 1 .73-.73.69.69 0 0 1 .72.73z"/><path d="m530.38 495.89c-.73 1.9.29 3.5 2 3.21 1.24-.15 1.68-.73 1.68-2s-.44-1.89-1.68-2a1.78 1.78 0 0 0 -2 .79zm2.25 1.17c.22.36.07.73-.29.73a.8.8 0 0 1 -.8-.73c0-.44.15-.73.29-.73s.58.29.8.73z"/><path d="m545.37 496c-1.24 1.53-.37 3.27 1.74 3.27s3.06-1.89 1.82-3.35c-1.09-1.34-2.4-1.34-3.56.08zm2.18 1.09a.8.8 0 0 1 -.8.73c-.36 0-.51-.37-.29-.73s.58-.73.8-.73.29.26.29.7z"/><path d="m536.78 499.68c-1.16.8-1.6 1.82-1.6 3.93s.44 3.13 1.6 3.93c3.57 2.55 8.08.29 8.08-3.93s-4.51-6.48-8.08-3.93zm4.22 4.32c0 1.17-1.16 1.39-1.82.3s.29-2.33 1.17-1.82a2.12 2.12 0 0 1 .65 1.52z"/><path d="m530.38 509.72c-.73 1.89.29 3.49 2 3.2 1.24-.14 1.68-.72 1.68-2s-.44-1.9-1.68-2a1.76 1.76 0 0 0 -2 .8zm2.62 1.17a.73.73 0 0 1 -.73.72.78.78 0 0 1 -.73-.72.73.73 0 0 1 .73-.73.69.69 0 0 1 .73.73z"/><path d="m664 506.52c-1.75 1.75-1.82 2.76-.29 5 2.11 3 7.57 1.23 7.57-2.55 0-1.45-2.77-3.86-4.37-3.86a5 5 0 0 0 -2.91 1.41z"/><path d="m687.06 506.37c-1.46 1.6-1.6 4.59-.37 5.83 1.46 1.45 5.53 1.09 6.41-.51 1.09-2.11.87-4.08-.58-5.39a3.7 3.7 0 0 0 -5.46.07z"/><path d="m720.75 506.52c-1.75 1.75-1.82 2.76-.29 5 2.11 3 7.57 1.23 7.57-2.55 0-1.45-2.77-3.86-4.37-3.86a5 5 0 0 0 -2.91 1.41z"/><path d="m744.91 505.57c-1.82.73-2.47 3.86-1.23 5.75 2 3.13 7.64 1.53 7.64-2.11 0-2.69-3.64-4.8-6.41-3.64z"/><path d="m572.51 535.41c37.19.15 97.74.15 134.63 0s6.55-.15-67.53-.15-104.21.08-67.1.15z"/><path d="m1078.29 442.33c-24.53 8.74-44.76 16.09-45 16.38s1.6 2.84 4.15 5.75 4.73 5.45 4.87 5.67 3.93-.94 8.52-2.47 8.59-2.69 9-2.55c.73.29 25.11 28.75 25.47 29.77.15.29-1.6 3.85-3.86 7.85a74.42 74.42 0 0 0 -4 7.94c0 .87 9.1 11.35 9.75 11.28.29-.08 10.85-18.85 23.36-41.77l22.78-41.7-2-2.55c-1.16-1.38-3.49-4.08-5.24-6l-3.12-3.49zm35.22 2.84c-.15.36-4.66 8.37-9.9 17.83l-9.68 17.32-9-10.62c-5-5.9-8.88-10.85-8.66-11.07s36.1-13.68 37.33-13.9c.13-.07.06.15-.09.44z"/><path d="m105 438.69c-1.39 1.46-3.57 3.86-4.88 5.32l-2.48 2.69 33.7 29.18c18.56 16 34 29.18 34.28 29.18.58 0 34-38.28 34.49-39.59.29-.72-3.93-4.8-9.61-9.31-1.52-1.24-1.67-1.09-14.11 13.24-6.92 8-12.81 14.56-13.18 14.56s-23.28-19.58-48-41.19l-7.72-6.77z"/><path d="m1139.56 490-13.82 26.34-14.85 9.54c-8.08 5.31-15.06 9.89-15.43 10.26s.8 3 3.13 6.55l3.71 5.82 12.45-8 15.72-10 3.27-2 26.93-1.17c14.84-.65 28.31-1.16 30-1.16s3.06-.29 3.06-.73a64 64 0 0 0 -4.44-7.64l-4.51-7-3.71.37c-6.84.8-36.75 2.76-37.41 2.47-.36-.07 3.86-8.22 9.46-18s10-18.2 9.75-18.63c-.58-1.68-8.58-13.47-9-13.47s-6.67 11.89-14.31 26.45z"/><path d="m89.88 469.11c-9.1 2.48-16.08 7.43-20.82 14.78-4.94 7.64-6.18 11.93-6.18 20.88 0 5.75.36 8.74 1.53 12.16 7.64 22.85 38.13 40.75 59.82 35.07 9.6-2.47 16.52-7.49 22.19-16 6-9 8.23-18 6.7-27.29l-.87-5.24-2.7.37c-1.45.29-4.73.65-7.35.94l-4.73.44v7.06c0 6-.29 7.49-1.89 11a26.27 26.27 0 0 1 -10.92 12c-3.63 2-4.44 2.19-11.64 2.19-7.64 0-7.71 0-14.19-3.2-8-4-15.28-10.85-18.34-17.32-1.67-3.57-2-5.17-2-10.41s.29-6.77 2.11-10.48a26.17 26.17 0 0 1 16.7-13.85c1.82-.43 2-.72 1.6-2.69-1.38-6.33-3.13-11.21-4.07-11.35a22.62 22.62 0 0 0 -4.95.94z"/><path d="m849.34 508a21.18 21.18 0 0 0 -10 5.54c-2.4 2.25-2.76 2.4-5.09 1.74-9.17-2.62-20.38 2.69-23.65 11.21-1.82 4.73-.59 8.37 4.58 13.53 4.8 4.74 10 7.86 19.72 11.79 4.15 1.68 6 2.7 4.44 2.48-28-4.3-42.21.36-42.21 13.75 0 6.41 4.37 11.79 11.07 13.54l3.34.94v3.43c.08 7.27 5.53 12.51 14 13.53 7.05.8 13.9-2.84 17.82-9.46 2-3.49 5-13.75 6.19-21.47l.87-5.31 2.62 3.13c8.45 10.26 18.12 17.39 24.89 18.41 12.74 1.82 23.44-12.15 17.47-22.7l-1.67-3.08 2-2c2.62-2.62 4.73-7.2 4.73-10.41 0-6-5.31-12.51-10.91-13.46-4.66-.8-9.1.22-15.58 3.49-5.38 2.84-17.17 11.07-18.26 12.89a1.4 1.4 0 0 1 -1.17.72c-.36 0 1.31-2.62 3.71-5.82 5.61-7.57 9.32-15.28 10.34-21.25.8-4.44.72-5-1-8.29a9.7 9.7 0 0 0 -5-5.17 21.28 21.28 0 0 0 -13.25-1.7z"/><path d="m382 510c-3.71 1.75-6.69 5.24-7.35 8.59-1.16 6.19 3 16.66 11 27.44l4.73 6.33-5.68-4.52c-12.44-9.89-20-13.68-27.43-13.68-6.84 0-10.63 2.33-13.1 8.15-2.18 5.24-1.09 10.41 3.2 15.29l2.26 2.62-1.39 2.47c-3.56 6.19-2.54 12.08 3.13 17.68 6.12 6 12.88 7.06 20.89 3.21 3.57-1.75 6.55-4.22 12.81-10.56l8.08-8.22.87 5.24c3.42 21.25 10 30.49 21.76 30.49a20.09 20.09 0 0 0 11.79-3.93 13.26 13.26 0 0 0 4.29-9.46c0-3.2.15-3.49 2-3.93 3.64-.87 8.51-3.93 10.26-6.55 4.07-5.89 2.33-14.84-3.57-18.77s-17.83-5.1-32.24-3.06c-3.49.51-6.11.66-5.82.44a51.09 51.09 0 0 1 6-2.48c13.68-5.16 22.71-12.15 24.75-19.35 2.76-9.68-11.36-20.24-23-17.25l-3.71.94-2.33-2.4c-3.64-3.78-7.71-5.53-13.9-5.82-4.23-.21-6.05.01-8.3 1.09z"/><path d="m865.79 598.87a46.28 46.28 0 0 0 -5.1 2.91c-2 1.38-2.18 1.38-6.47.29-3.79-1-5-1.09-8.52-.29-10.26 2.26-15.64 10.12-11.86 17.39 2.77 5.39 7.13 9.1 18.63 15.65 3.42 2 5.53 3.35 4.73 3.06-5-1.68-16.23-3.5-22.27-3.57-6.4-.07-7.27.07-11.2 2.11-5 2.62-6.92 5.53-6.92 10.77 0 5.68 3.06 9.68 9.17 12.08 2.11.87 2.26 1 2 4.29-1 11.94 17.75 18.05 26.56 8.66 2.91-3.12 6.33-9.67 8.44-16.15 1.09-3.64 2.26-7.13 2.55-7.86.36-1.09 1.09-.36 3.85 3.64 10.34 15 20.38 20 30.35 15.06 6.84-3.42 10.12-11.64 7.06-17.68-1-1.89-1-2 1.46-3.93 6.69-5.39 6.47-15.28-.37-19.94-6.33-4.3-17.68-1.89-30.71 6.48-7.42 4.73-7.57 4.51-1.31-2.19 13.25-14 15.21-25.18 5.39-30.27-4.18-2.11-11.46-2.38-15.46-.51z"/><path d="m362.34 600c-10.48 4.8-8.51 15.43 5.61 31.15l5.09 5.67-6.26-3.93c-16.59-10.4-29.54-11.93-34.49-3.93-3.5 5.68-3 10.56 1.67 15.72l3.2 3.57-1.16 3.2c-2.26 6.33.94 12.81 8.08 16.3a16.16 16.16 0 0 0 14.62 0c3.79-1.75 11.57-9.75 15.3-15.47a25.64 25.64 0 0 1 3.27-4.58c.22 0 1 2.18 1.75 4.88 1.67 6.55 6.18 15.93 9.09 19.28a19.09 19.09 0 0 0 5.46 4.15c10.34 5 23.43-3 21.76-13.32-.36-2.25-.22-2.47 2-2.91 3.34-.65 8.44-6 9.09-9.39 1.09-5.89-1.38-10.77-7.2-13.82-2.55-1.39-4.08-1.61-11-1.53a68.87 68.87 0 0 0 -14.92 1.6c-3.78.87-7.06 1.6-7.28 1.6a39.73 39.73 0 0 1 5.1-3c7.06-3.86 9.09-5.32 13.32-9.32 7.56-7.2 8.29-13.46 2.18-19.07a19.2 19.2 0 0 0 -18.85-4c-3.35 1.09-3.57 1.09-4.95-.22-4.82-4.49-14-5.73-20.48-2.63z"/><path d="m383.81 684.52a14.81 14.81 0 0 0 -3.78 2.26c-1.24 1.09-1.6 1.09-5.24 0-8.66-2.77-17-.44-21.33 6-4.87 7.2 1.17 16.15 17.61 26.19 2.84 1.75 4.52 2.92 3.79 2.7-18-5.9-29-6.62-35.51-2.33-7.57 5-6.26 16.81 2.32 20.59 2.84 1.24 3 1.39 2.62 4.08-.87 6.48 3.06 12 10.19 14 9.24 2.7 16.67-1.89 22.42-13.82a90.07 90.07 0 0 0 4.07-9.75c.51-1.68 1.09-3.06 1.31-3.06a29.23 29.23 0 0 1 3.5 5c7.05 11.42 13.09 16.66 20.08 17.39 5.46.58 9.68-1.09 13.54-5.24 3.56-3.86 4.44-7.42 2.83-11.79l-1.09-3.05 2.26-1.69c3.78-2.62 5.09-4.94 5.38-9.75.22-3.64 0-4.8-1.45-6.84-5.31-7.86-15.79-7.42-32.89 1.46l-7.06 3.56 6.76-6.69c8.08-8 11.5-13.9 11.5-19.72 0-3.21-.29-3.93-2.76-6.33a15.52 15.52 0 0 0 -5.61-3.57c-4.07-1.05-10.4-.91-13.46.4z"/><path d="m846.07 685.4c-12.59 4.51-11.36 15.21 3.35 29.76l6.69 6.7-6.69-3.57c-19.87-10.41-33-9.39-35.23 2.77-.73 3.85.8 7.64 4.51 11.06 3.06 2.76 3.28 3.27 2.55 4.87-1.09 2.4-1 7.21.22 9.54a16.6 16.6 0 0 0 14.26 8.37c8.45 0 15.21-6 24.46-21.69.58-1.17 1-.58 2.4 3.35 4.29 11.71 9.53 19.35 15 21.83 6.26 2.84 15.64.65 19.36-4.51 1.38-2 1.74-3.42 1.74-7v-4.51l2.77-1.24c8-3.64 10-13.83 3.78-19.65-5.75-5.38-15.35-5.16-35.29.73-1 .29 1.23-1.46 4.95-3.86 11.28-7.35 16.37-13.46 16.37-19.5 0-3.64-1.46-6-5.39-9-5.09-3.71-13.46-4.3-18.92-1.38-1 .51-2.25.14-5.16-1.46a18.59 18.59 0 0 0 -15.73-1.61z"/><path d="m610.65 707.16c-.3.21-.51 2.54-.51 5v4.58l-6 .22-6 .22-.22 6.33-.22 6.4h-13v29l-7.79 4.51c-10.55 6.19-12.59 7.79-12.59 10s3.49 10.55 10.48 25.25c2.62 5.53 4.8 10.19 4.8 10.34 0 1.09-4.51-.15-9.61-2.7-5.38-2.62-6.47-2.91-10.4-2.69-3.49.22-5.31.8-8.88 3-4.29 2.62-4.51 2.84-3.71 4.52.44 1 1.09 1.82 1.38 1.82a22.18 22.18 0 0 0 4.29-2.26c5.75-3.57 8.16-3.57 15.8 0 9.75 4.44 13 4.15 18.92-2 3.42-3.49 5.6-3.2 11.06 1.68 6.26 5.6 7.42 5.46 16.23-2 5-4.14 6.4-4.22 10.55-.36 5.31 5 8.81 7.06 11.72 7.06 2.18 0 3.2-.66 6.84-4.37 5.82-6 7.42-6 14.26.29 7.57 6.92 9.53 7 18.05.44 6.69-5.09 9-5 16.66 1.38 3.57 3 3.64 3 5 1.53s1.45-1.45-.66-3.71c-3-3.06-8.15-6.33-11.35-7.2-3.71-1-7.28.29-12.81 4.58-4.44 3.49-7.35 4.29-8.88 2.4-.65-.73-.22-2.11 2-6 8.22-14.55 14-27 14-30.34 0-1-1.17-2.77-2.69-4.3-2.84-2.69-12.38-9.31-13.47-9.31-.29 0-.58-6.26-.58-13.83v-13.8h-13.81l-.22-7.85-.22-7.79-6.33-.22-6.41-.22v-10.11h-12.59c-6.98 0-12.88.21-13.09.51zm22.05 6.4v3.27h-18.93v-6.55h18.93zm-26.93 13.83v6.91h34.93v-13.83h5.09v15.29h13.83v11c0 6-.22 10.85-.51 10.7s-5-2.47-10.48-5.09c-13.1-6.48-22.41-9.61-27-9.1-3.78.51-16.08 5.31-26 10.26-3.63 1.82-6.76 3.35-7 3.35s-.37-5.39-.37-12v-12h13.1v-12.41h4.37zm32-1.46v5.46h-29.09v-10.92h29.11zm-16 45.92v25.15l1.67-.22 1.6-.22.22-25c.08-16.37.44-24.89 1-24.89 3.35 0 28 11.65 38.71 18.27 9.1 5.6 12.3 8.44 11.72 10.33-.8 2.77-6.77 15.14-11.28 23.51l-4.44 8.15-3.64-2.48c-2.91-2-4.36-2.47-7.27-2.47-3.42 0-3.86.22-8.23 4.44-3.56 3.42-4.95 4.29-6.11 3.93-.8-.22-3.64-2.4-6.26-4.73-7.13-6.48-10.26-6.7-17.39-1-7.57 6.12-6.55 6-10.63 2.11a24.7 24.7 0 0 0 -5.46-4.07 10.67 10.67 0 0 0 -12.29 3.34c-1.17 1.53-1.68.51-12.16-22.63l-4.33-9.37 2.18-1.89c6.77-5.75 46.14-25.18 51.53-25.4.65-.04.87 5.49.87 25.14z"/><path d="m403.6 764.14c-5.09 2.33-7.35 4.29-9.67 8.37-1.9 3.42-2.48 3.85-5.1 4.29-8.95 1.46-16.66 9.53-16.66 17.47 0 4.29 2.4 7.13 7.64 9.09 5 1.89 16.08 3.28 21.83 2.69 5.39-.5 4 .22-5.46 2.84-17.9 5-27.22 13.25-24.74 22 1.6 5.82 5 8.22 11.64 8.22h4.73l1.46 3.06c3.93 8.3 17.46 8.37 24.3.07 3.64-4.44 4.73-9.24 4.15-19.14-.22-4.58-.65-9.38-.87-10.69l-.44-2.33 5.39 2.69c10.91 5.53 18.77 7.06 25.18 5s11.79-9.61 11.79-16.08c0-2.92-2-6.77-4.37-8.15l-2-1.17 1.39-3c4-8.81-1.17-17.61-9.9-17a23.38 23.38 0 0 0 -6.55 1.6c-4.15 2-11.64 9.9-16.74 17.69a53.24 53.24 0 0 1 -4.51 6.47 64.09 64.09 0 0 1 1.89-6.33c4.73-14 4.37-24.31-.8-27.94-2.37-1.69-9.65-1.47-13.58.28z"/><path d="m828.46 766.17c-3.93 2-5.39 5.17-5.68 12.89a39.55 39.55 0 0 0 1.53 13.46c1 3.78 2 7.57 2.33 8.37s-1.39-1.6-3.71-5.39c-5.24-8.37-11.65-15.5-15.87-17.46-6-2.91-12.08-1.53-15.94 3.71-2 2.62-2.47 8.51-1 12.08 1.17 2.84 1.17 2.84-1.09 4.95-7.2 6.77-4.73 18.48 4.88 22.92 5.68 2.62 12.3 1.53 23.43-4.07a70.06 70.06 0 0 1 8.08-3.72 8 8 0 0 1 -.51 3.06c-2.91 10.92-2.4 22.42 1.16 27.58 3.06 4.37 7.43 6.33 13.47 6 5.82-.29 8.22-1.74 10.55-6.4l1.67-3.2 4.3-.15c7.71-.22 12.44-5 12.44-12.59s-7.93-13.46-23.72-17.39l-8.08-2 8.81-.87c16.81-1.53 24-5.68 23.86-13.61-.07-7.5-6-14.12-14-15.72-4.07-.8-4.44-1-5.89-4-3.63-7.62-14.18-11.94-21.02-8.45z"/><path d="m616.47 813.91a27.93 27.93 0 0 0 -6 3.79c-7.21 6.11-6.26 5.89-10.48 1.82-6.7-6.48-11.36-6.7-17.54-.73-3.49 3.35-4.08 3.64-6.26 3.2a37.33 37.33 0 0 1 -7.64-3.13c-7.13-3.71-11.43-3.71-18.19.08-5.17 2.91-5.46 3.27-4.08 5.53.8 1.31 1.09 1.23 6.26-1.53 6.33-3.28 7.2-3.28 15.06.51 9.39 4.51 12 4.36 17.61-1.09 2-2 4.3-3.64 5-3.64 1.9 0 4.08 1.38 8.15 5.16 4.73 4.44 6.19 4.52 11.14.44 9.68-7.86 10.11-7.93 16.23-2.25 7.78 7.2 11.64 7.49 17 1.45a21.88 21.88 0 0 1 4.43-4c2.48-1.31 5.83.07 9.68 4 7 7.21 9.76 7.21 19.14 0a20.37 20.37 0 0 1 5.17-3.06c2.18-.58 6 1.31 10.19 4.95 3.35 3 5 3.2 6 .8.58-1.53-5.1-6.76-9.76-9-5.53-2.62-8.22-2-16.37 4.08-2.4 1.74-4.88 3.2-5.46 3.2s-3.2-2-5.75-4.37c-7.93-7.35-12.88-7.64-19.28-1.09-2.4 2.48-4.51 4-5.53 4s-3.35-1.67-5.9-4c-3.49-3.2-8.44-6.33-9.75-6.18-.23.15-1.54.55-3.07 1.06z"/><path d="m776.93 826.72q-2.4 1.53-4.36 5.68c-1.75 3.78-2 5-2 12.88a111.86 111.86 0 0 0 .51 12c.44 2.69.36 3-.29 1.45-3.57-8.15-8.15-16.81-10-19.14-5.9-7-14.48-7.42-20.16-1-2.69 3.06-3.49 6.41-2.84 11.28.44 3.28.29 3.57-1.67 4.73-6 3.57-7.57 13.83-2.91 19.73 5.09 6.47 14.91 6.33 30.12-.66l5.24-2.4-2.47 7.42c-2.62 7.64-3.71 15.58-2.84 20.38.73 3.86 4.8 8 8.81 9.17 6.33 1.75 13.39-.87 15.79-5.9 1.16-2.32 1.31-2.4 5.17-2.18 8.22.36 14.33-5.09 14.33-12.73 0-7.35-6.91-13-21.76-17.76l-6.11-2 10.12-.29c11.57-.44 16.51-1.75 20.3-5.31 7.35-6.92 2.76-19.72-8.08-22.49-3.06-.8-3.56-1.16-4.22-3.57a16.41 16.41 0 0 0 -7.71-9.24c-3.9-2.01-9.77-2.01-12.97-.05z"/><path d="m453.31 828.25a20.48 20.48 0 0 0 -9.46 9.75c-1.46 3.28-2 3.71-5 4.59-6.33 1.67-12.08 8.88-12.08 15.28 0 4.58 1.23 6.48 5.75 8.66 3.63 1.82 4.87 2 11.71 2a96.93 96.93 0 0 0 11.65-.58c3.85-.51 3.71-.44-3.72 2.61-13.24 5.39-19.79 10.27-21.83 16.31-2.62 7.93 4.59 15.35 13.17 13.6l3.5-.72 1.16 2.4c3.13 6.62 13.9 7.2 20.38 1.09 5.17-4.88 6.11-12.88 3-25.32-1-3.93-1.82-7.21-1.82-7.36s2 .73 4.59 1.68c14 5.6 23.65 5.17 29.4-1.38 4.58-5.17 5.17-13.25 1.31-17.25a11.38 11.38 0 0 0 -3.28-2.55c-1.16-.36-1.16-.65-.29-3.13 1.31-3.71 1.24-5.82-.36-9.39a10.41 10.41 0 0 0 -10.41-5.82c-6.91 1-12.44 6.55-19.36 19.72-2.11 4.08-3.71 6.7-3.49 5.9 2.4-10.26 2.77-20.81.8-25.69a13.74 13.74 0 0 0 -3.13-4.51c-2.44-1.93-8.26-1.85-12.19.11z"/><path d="m678.54 867.69c-5.6 1.82-8.73 6.26-8.73 12.16 0 3.27-.07 3.27-3.86 5.09-5 2.4-6.69 5.31-6.69 11.72 0 6.69 2.69 11.06 8.66 14.12 3.71 1.82 5.24 2.18 11.64 2.47l7.35.29-6.91 1.6a333.49 333.49 0 0 0 -53.34 17.69l-8.59 3.63-6.7-2.83c-15.93-6.84-36.24-13.68-51.08-17.1l-5.83-1.39 7.28-.43c11.65-.73 17.47-4.3 19.72-12.16 2.19-7.49-.14-13.68-6.26-16.37-3.56-1.6-3.63-1.68-3.63-4.8 0-9-8.08-15.14-15.87-12.08-6.77 2.69-11.06 10.69-14 25.54a81 81 0 0 1 -1.75 8.08c-.14.14-.43-2.7-.65-6.33-1.46-19.65-8.74-29.41-18.92-25.11a18.77 18.77 0 0 0 -11.21 15.21c-.29 3.13-.73 4.07-2 4.66-2.84 1.31-6.91 5.38-8.51 8.36-3.21 6.41-2.26 14.92 2 17.69 4.73 3.13 14.34 2.47 25.76-1.6 3.86-1.39 7.14-2.48 7.28-2.48a37.39 37.39 0 0 1 -3.64 2.62c-9.39 6.33-15.86 12.67-18.56 17.91-5.82 11.35 3.93 22.41 15.36 17.39l3.49-1.53 2.7 2.47c9.24 8.37 24.74-1.74 23-15-.65-4.8-2.69-10-6.18-16.08-1.6-2.69-2.62-4.88-2.26-4.88s5.6 2 11.79 4.44c11.72 4.66 29.33 13 39.73 18.56l6.12 3.35-10.11 5.43c-16.37 8.8-37.11 21.61-48.9 30.2l-4.66 3.34 1.75 1.1c11.93 7.64 17 10.69 17.47 10.69a67.82 67.82 0 0 0 7.56-6c10.19-8.73 26.78-21.32 39.08-29.69l10.77-7.35 3.42 2c11.21 6.48 37.56 25.4 48 34.35a45.15 45.15 0 0 0 5.82 4.51c.73 0 18-12.3 18.2-13 .43-1.09-30-19-49.63-29.26-6.41-3.35-11.79-6.18-11.94-6.33-.65-.51 2.77-2.47 15.21-8.88 7-3.56 16.81-8.15 21.76-10.19 8.73-3.63 22-8.07 23.87-8.07.51 0-.58 2.83-2.62 6.76-7.13 13.61-6.7 21.76 1.38 28.24 5.61 4.51 12.81 4.44 17.25-.07l2.18-2.19 3.2 1.46c3.79 1.67 7.94 1.89 10.7.44 6.55-3.42 8.44-10.26 4.95-17.47-2.18-4.51-8.88-11.13-17.17-17.1-3-2.18-4.81-3.64-4-3.35s3.5 1.31 6 2.26c6.48 2.47 16.08 4.22 20 3.64a18.67 18.67 0 0 0 5.53-2c7.86-4.73 4.74-20.45-5-25.4-2.18-1.16-2.83-1.89-2.83-3.34a19.62 19.62 0 0 0 -10.27-16.6c-4.73-2.33-7.71-2.4-10.91-.29-5 3.35-9.17 15.36-9.46 27.51l-.08 4.73-.77-3.15c-4.15-19.07-6.41-24.82-11.06-29a15.74 15.74 0 0 0 -5.32-3c-3.24-.9-2.8-.9-6.08.19z"/><path d="m771.33 1046.72c-9.75 3.27-14.85 9.46-14.92 18.26 0 6.26 1.31 9.75 5.09 13.61s8.66 5.75 19.51 7.57c10.48 1.75 14 4.29 14 10.19 0 11.06-20.16 13.68-28.82 3.86a16.54 16.54 0 0 1 -2.62-3.57c-.22-.73-1.16-.58-3.71.8-1.89 1-4.07 2.33-4.87 2.91-1.46 1.09-1.46 1.09.07 4.15 4.51 9.1 15.06 14 28.16 13.1 14.92-1 23.43-8.88 23.43-21.69 0-4.58-.36-6.18-2-9.46-3.57-7-8.66-9.68-22.78-12-10.62-1.82-13.83-3.93-13.83-9.17 0-9.24 16.81-11.79 25-3.78l2.62 2.55 4.36-2.4c2.41-1.31 4.37-2.77 4.37-3.21 0-2.33-5.31-7.57-10-9.89s-5.53-2.41-12.59-2.55c-4.72-.16-8.65.13-10.47.72z"/><path d="m859.75 1047.52c-14.77 4-23.94 17.32-24 34.78 0 10.92 3.35 20 9.76 26.42 10.91 11 31.14 11.93 43.15 2.11 1.75-1.46 3.13-2.91 3.13-3.27s-1.67-2.48-3.64-4.66l-3.71-3.86-3.64 2.48c-4.73 3.12-8.59 4.14-14.48 3.78-11.21-.8-18.12-8.59-18.78-21-.72-14.34 6.48-24.24 18.34-25.18 6.26-.51 8.88.07 13.9 3.05l4.22 2.62 2.19-2a47.87 47.87 0 0 0 3.63-4.15l1.53-2.11-2.91-2.55a32.2 32.2 0 0 0 -28.69-6.46z"/><path d="m176.41 1082.16v34.2h43.66v-12.36h-32v-56h-11.66z"/><path d="m253 1053.19c-8.37 20.31-25.61 62.59-25.61 62.88s2.84.22 6.33.15l6.28-.22 2.55-6.33 2.62-6.41h32.74l2.62 6.41 2.55 6.33 6.41.22c5.82.21 6.33.07 6-1.1-.22-.72-6.47-16.08-13.82-34l-13.47-32.75-6.47-.22-6.55-.22zm14.56 23.87c3.05 7.57 5.31 13.9 5.09 14.19s-5.16.37-11.06.37-10.84-.15-11.06-.37c-.51-.51 10.41-28 11.06-28 .18-.01 2.87 6.17 5.93 13.81z"/><path d="m300.85 1081.94 11.5 34.06h9.82l3.57-9.83c1.89-5.38 5-14.92 6.91-21.1s3.42-11.35 3.49-11.5 1.1 2.62 2.19 6.19c2.54 8.51 9.68 29.61 11.35 33.47l1.31 3.13h9.46l11.06-33.69c6-18.49 11.21-33.92 11.35-34.21s-2.69-.43-6.4-.36l-6.7.22-1.67 5.82c-.94 3.2-4.15 14.19-7.13 24.38l-5.31 18.56-4.22-13.1c-2.26-7.21-5.75-18.27-7.79-24.6l-3.64-11.38h-7.71l-1.09 3.42c-7 23.58-14 45.34-14.27 44.54-.22-.58-3.49-11.5-7.35-24.3l-6.91-23.29-6.7-.22-6.69-.22z"/><path d="m391.82 1082.16v34.27l5.67-.21 5.61-.22.36-22.34.36-22.35 16.38 22.49 16.37 22.56h9.1v-68.36h-11.67l-.14 22.56-.22 22.56-16.23-22.56-16.21-22.56h-9.38z"/><path d="m474.05 1053.78v5.82h19.65v56.76h11.64v-56.76h19.66v-11.6h-50.95z"/><path d="m534.45 1082.16v34.2l23.14-.14 23.07-.22.22-6.33.22-6.41h-35v-15.26h33.47v-11.64h-33.47v-16h34.9v-12.36h-46.55z"/><path d="m593.4 1082.16v34.2h11.6l.15-22.7.22-22.78 16.44 22.56 16.49 22.56 4.87.22 4.81.21v-68.43h-11.65v22.64c0 12.37-.29 22.41-.58 22.19s-7.78-10.4-16.59-22.56l-15.94-22.27-4.87-.08h-5z"/><path d="m662.53 1082.16v34.2h11.65v-22.63c0-12.37.29-22.42.58-22.2s7.93 10.41 16.81 22.64l16.23 22.19h9.31v-68.36h-11.64l-.15 22.71-.21 22.78-16.38-22.71-16.37-22.78h-9.83z"/><path d="m731.81 1081.94.19 34.06 5.68.22 5.6.21v-68.43h-11.61z"/><path d="m901.38 1081.94.21 34.06h43.67v-11.65l-16.16-.21-16.23-.15v-56h-11.64z"/><path d="m952.17 1069.35c0 11.72.29 23.07.73 25.18 2.69 14.34 12.66 22.7 26.93 22.7 13.75 0 23.28-7.71 26.12-21.1.51-2.33.8-12.52.8-26v-22.13h-11.57l-.22 23.44c-.22 22.63-.29 23.65-1.82 26.49a13.62 13.62 0 0 1 -9.68 7.49 15.58 15.58 0 0 1 -17.68-8.22c-1.53-2.84-1.6-3.93-1.82-26.13l-.22-23.07h-11.57z"/><path d="m1020.72 1081.94.22 34.06h17.83c20-.08 24.09-.73 28.82-4.88 5.39-4.73 7.64-13.9 5-20.74-1.38-3.64-5.75-9-7.35-9s-1.16-1 1.09-2.33c3.42-1.89 5.17-6.18 5.17-12.37 0-6.48-1.53-10-5.68-13.83-4.87-4.36-8-5-27.94-5h-17.32zm35.3-20.89a7.8 7.8 0 0 1 3.13 10.56c-1.6 2.91-4.51 3.63-16 3.63h-10.55l-.22-7.86-.22-7.78h10.77c9.38-0 11.07.22 13.07 1.45zm-.07 26.86c6 2.76 7.86 8.07 4.22 12.37-2.55 3-5.61 3.71-17.54 3.71h-10.41v-17.47h10.41c8.51 0 10.84.29 13.37 1.39z"/></g></svg>