<svg width="431" height="58" viewBox="0 0 431 58" fill="none" xmlns="http://www.w3.org/2000/svg">
<g clip-path="url(#clip0_4_60)">
<path d="M427.124 39.4071C425.56 39.4071 424.37 38.9424 423.554 38.0131C422.76 37.0611 422.364 35.6558 422.364 33.7971V23.3931L422.976 24.0051H419.712V21.4551L423.044 20.6731L422.364 21.4891V16.8651L427.158 16.0151V21.4891L426.648 20.8431H431.816L431.748 24.0051H426.648L427.158 23.3931V33.1511C427.158 34.1258 427.316 34.8284 427.634 35.2591C427.951 35.6898 428.427 35.9051 429.062 35.9051C429.424 35.9051 429.821 35.8484 430.252 35.7351C430.705 35.5991 431.192 35.4291 431.714 35.2251L432.598 37.8431C430.694 38.8858 428.869 39.4071 427.124 39.4071Z" fill="black"/>
<path d="M410.977 39.4071C409.413 39.4071 407.996 39.0445 406.727 38.3191C405.48 37.5711 404.494 36.5058 403.769 35.1231C403.043 33.7405 402.681 32.0631 402.681 30.0911C402.681 28.3005 402.941 26.7931 403.463 25.5691C403.984 24.3451 404.687 23.3591 405.571 22.6111C406.455 21.8405 407.441 21.2851 408.529 20.9451C409.617 20.6051 410.739 20.4351 411.895 20.4351C412.983 20.4351 414.082 20.5711 415.193 20.8431C416.303 21.1151 417.21 21.4211 417.913 21.7611L417.777 26.7591H414.717L414.207 23.9711L414.581 24.2431C414.241 24.1071 413.821 24.0051 413.323 23.9371C412.847 23.8691 412.405 23.8351 411.997 23.8351C411.022 23.8351 410.206 24.0845 409.549 24.5831C408.914 25.0591 408.438 25.7505 408.121 26.6571C407.803 27.5411 407.645 28.5951 407.645 29.8191C407.645 31.1338 407.826 32.2445 408.189 33.1511C408.551 34.0578 409.061 34.7491 409.719 35.2251C410.399 35.6785 411.181 35.9051 412.065 35.9051C412.767 35.9051 413.538 35.7578 414.377 35.4631C415.215 35.1685 416.088 34.7265 416.995 34.1371L418.593 36.5511C417.323 37.5258 416.054 38.2511 414.785 38.7271C413.515 39.1805 412.246 39.4071 410.977 39.4071Z" fill="black"/>
<path d="M391.705 39.4071C390.05 39.4071 388.599 39.0671 387.353 38.3871C386.106 37.6845 385.131 36.6531 384.429 35.2931C383.749 33.9105 383.409 32.2331 383.409 30.2611C383.409 28.2211 383.771 26.4758 384.497 25.0251C385.245 23.5518 386.287 22.4185 387.625 21.6251C388.962 20.8318 390.537 20.4351 392.351 20.4351C394.119 20.4351 395.558 20.7865 396.669 21.4891C397.779 22.1918 398.595 23.1551 399.117 24.3791C399.638 25.5805 399.899 26.9405 399.899 28.4591C399.899 28.8445 399.876 29.2298 399.831 29.6151C399.808 30.0005 399.763 30.4085 399.695 30.8391H387.251V28.0171H395.615L395.003 28.4591C395.025 27.5525 394.935 26.7591 394.731 26.0791C394.549 25.3765 394.232 24.8325 393.779 24.4471C393.348 24.0618 392.747 23.8691 391.977 23.8691C391.093 23.8691 390.379 24.1298 389.835 24.6511C389.291 25.1498 388.894 25.8298 388.645 26.6911C388.418 27.5525 388.305 28.5158 388.305 29.5811C388.305 30.7825 388.452 31.8591 388.747 32.8111C389.041 33.7631 389.517 34.5111 390.175 35.0551C390.855 35.5991 391.739 35.8711 392.827 35.8711C393.597 35.8711 394.425 35.7351 395.309 35.4631C396.215 35.1685 397.156 34.7378 398.131 34.1711L399.729 36.7211C398.414 37.6278 397.065 38.3078 395.683 38.7611C394.323 39.1918 392.997 39.4071 391.705 39.4071Z" fill="black"/>
<path d="M360.78 38.9991V36.5511L363.636 35.7351L363.058 36.4151V23.4611L363.636 24.2431L360.78 23.3931V20.9451L366.764 20.6731L367.376 23.9371L366.764 23.6991C367.852 22.5885 369.008 21.7725 370.232 21.2511C371.456 20.7071 372.623 20.4351 373.734 20.4351C375.275 20.4351 376.556 20.9225 377.576 21.8971C378.596 22.8491 379.094 24.2998 379.072 26.2491V36.4151L378.63 35.7351L381.35 36.5511V38.9991H372.272V36.5511L374.856 35.8031L374.312 36.5171V27.2691C374.312 26.1585 374.062 25.3425 373.564 24.8211C373.088 24.2998 372.453 24.0391 371.66 24.0391C371.048 24.0391 370.379 24.2091 369.654 24.5491C368.928 24.8891 368.214 25.3991 367.512 26.0791L367.818 25.3651V36.5171L367.376 35.8031L369.858 36.5511V38.9991H360.78Z" fill="black"/>
<path d="M338.219 38.9991V36.5511L341.075 35.7351L340.497 36.4151V23.4611L341.075 24.2431L338.219 23.3931V20.9451L344.203 20.6731L344.815 23.9371L344.203 23.6991C345.291 22.5885 346.447 21.7725 347.671 21.2511C348.895 20.7071 350.062 20.4351 351.173 20.4351C352.714 20.4351 353.995 20.9225 355.015 21.8971C356.035 22.8491 356.534 24.2998 356.511 26.2491V36.4151L356.069 35.7351L358.789 36.5511V38.9991H349.711V36.5511L352.295 35.8031L351.751 36.5171V27.2691C351.751 26.1585 351.502 25.3425 351.003 24.8211C350.527 24.2998 349.892 24.0391 349.099 24.0391C348.487 24.0391 347.818 24.2091 347.093 24.5491C346.368 24.8891 345.654 25.3991 344.951 26.0791L345.257 25.3651V36.5171L344.815 35.8031L347.297 36.5511V38.9991H338.219Z" fill="black"/>
<path d="M326.994 20.4351C329.669 20.4351 331.754 21.2285 333.25 22.8151C334.746 24.4018 335.494 26.6571 335.494 29.5811C335.494 31.6211 335.131 33.3778 334.406 34.8511C333.681 36.3018 332.638 37.4238 331.278 38.2171C329.918 39.0105 328.286 39.4071 326.382 39.4071C323.707 39.4071 321.633 38.6138 320.16 37.0271C318.709 35.4405 317.984 33.1851 317.984 30.2611C317.984 28.2211 318.335 26.4758 319.038 25.0251C319.763 23.5518 320.795 22.4185 322.132 21.6251C323.469 20.8318 325.09 20.4351 326.994 20.4351ZM326.756 23.8351C325.464 23.8351 324.501 24.3451 323.866 25.3651C323.231 26.3625 322.914 27.9151 322.914 30.0231C322.914 32.1311 323.22 33.6611 323.832 34.6131C324.444 35.5425 325.373 36.0071 326.62 36.0071C327.527 36.0071 328.263 35.7805 328.83 35.3271C329.397 34.8738 329.827 34.1825 330.122 33.2531C330.417 32.3238 330.564 31.1791 330.564 29.8191C330.564 27.7565 330.247 26.2491 329.612 25.2971C328.977 24.3225 328.025 23.8351 326.756 23.8351Z" fill="black"/>
<path d="M307.092 39.4072C305.233 39.4072 303.533 38.9539 301.992 38.0472C300.451 37.1179 299.215 35.7466 298.286 33.9332C297.357 32.0972 296.892 29.8419 296.892 27.1672C296.892 24.5379 297.345 22.2939 298.252 20.4352C299.159 18.5766 300.439 17.1486 302.094 16.1512C303.749 15.1539 305.687 14.6552 307.908 14.6552C309.087 14.6552 310.299 14.8026 311.546 15.0972C312.793 15.3919 314.13 15.8339 315.558 16.4232L315.252 22.5432H312.362L311.546 18.5652L312.362 19.3472C311.569 19.0299 310.809 18.7919 310.084 18.6332C309.359 18.4746 308.69 18.3952 308.078 18.3952C306.786 18.3952 305.698 18.7239 304.814 19.3812C303.93 20.0159 303.261 20.9452 302.808 22.1692C302.355 23.3932 302.128 24.8552 302.128 26.5552C302.128 28.5499 302.389 30.2159 302.91 31.5532C303.454 32.8679 304.191 33.8539 305.12 34.5112C306.072 35.1459 307.137 35.4632 308.316 35.4632C309.2 35.4632 310.129 35.2819 311.104 34.9192C312.101 34.5339 313.099 33.9559 314.096 33.1852L315.898 36.0072C314.493 37.1406 313.031 37.9905 311.512 38.5571C310.016 39.1238 308.543 39.4072 307.092 39.4072Z" fill="black"/>
<path d="M276.473 39.4071C275.589 39.4071 274.637 39.3505 273.617 39.2371C272.597 39.1238 271.498 38.9538 270.319 38.7271V14.8591L271.067 16.1511L268.041 15.2671V12.8191L275.079 12.5471V23.7671L274.501 23.0531C275.317 22.2371 276.212 21.6025 277.187 21.1491C278.162 20.6731 279.193 20.4351 280.281 20.4351C281.596 20.4351 282.752 20.7865 283.749 21.4891C284.746 22.1691 285.528 23.1891 286.095 24.5491C286.684 25.9091 286.979 27.5865 286.979 29.5811C286.979 31.0091 286.798 32.3238 286.435 33.5251C286.095 34.7038 285.517 35.7351 284.701 36.6191C283.908 37.5031 282.831 38.1945 281.471 38.6931C280.134 39.1691 278.468 39.4071 276.473 39.4071ZM277.323 36.0071C278.955 36.0071 280.145 35.4745 280.893 34.4091C281.641 33.3438 282.015 31.8591 282.015 29.9551C282.015 28.7085 281.868 27.6431 281.573 26.7591C281.278 25.8525 280.87 25.1611 280.349 24.6851C279.828 24.1865 279.182 23.9371 278.411 23.9371C277.822 23.9371 277.198 24.0958 276.541 24.4131C275.884 24.7305 275.204 25.2178 274.501 25.8751L275.079 24.4131V36.7551L274.501 35.5991C275.566 35.8711 276.507 36.0071 277.323 36.0071Z" fill="black"/>
<path d="M253.767 39.4072C252.271 39.4072 251.013 38.9199 249.993 37.9452C248.973 36.9479 248.463 35.4519 248.463 33.4572V23.5292L248.905 24.2092L246.185 23.3932V20.9452L253.223 20.7072V32.6752C253.223 33.7406 253.461 34.5339 253.937 35.0552C254.413 35.5539 255.047 35.8032 255.841 35.8032C256.453 35.8032 257.121 35.6446 257.847 35.3272C258.572 34.9872 259.297 34.4659 260.023 33.7632L259.717 34.6132V23.4272L260.159 24.2092L257.439 23.3932V20.9452L264.477 20.7072V36.4832L263.899 35.6672L266.721 36.5512V38.9652L260.771 39.2372L260.125 35.9052L260.771 36.1432C259.66 37.2312 258.493 38.0472 257.269 38.5912C256.045 39.1352 254.877 39.4072 253.767 39.4072Z" fill="black"/>
<path d="M242.353 36.2111L242.013 35.8031L244.631 36.5511V38.9991H235.349V36.5511L237.967 35.8031L237.593 36.2111V15.6411L237.899 15.9811L235.349 15.2671V12.8191L242.353 12.5471V36.2111Z" fill="black"/>
<path d="M224.934 39.4072C223.075 39.4072 221.375 38.9539 219.834 38.0472C218.293 37.1179 217.057 35.7466 216.128 33.9332C215.199 32.0972 214.734 29.8419 214.734 27.1672C214.734 24.5379 215.187 22.2939 216.094 20.4352C217.001 18.5766 218.281 17.1486 219.936 16.1512C221.591 15.1539 223.529 14.6552 225.75 14.6552C226.929 14.6552 228.141 14.8026 229.388 15.0972C230.635 15.3919 231.972 15.8339 233.4 16.4232L233.094 22.5432H230.204L229.388 18.5652L230.204 19.3472C229.411 19.0299 228.651 18.7919 227.926 18.6332C227.201 18.4746 226.532 18.3952 225.92 18.3952C224.628 18.3952 223.54 18.7239 222.656 19.3812C221.772 20.0159 221.103 20.9452 220.65 22.1692C220.197 23.3932 219.97 24.8552 219.97 26.5552C219.97 28.5499 220.231 30.2159 220.752 31.5532C221.296 32.8679 222.033 33.8539 222.962 34.5112C223.914 35.1459 224.979 35.4632 226.158 35.4632C227.042 35.4632 227.971 35.2819 228.946 34.9192C229.943 34.5339 230.941 33.9559 231.938 33.1852L233.74 36.0072C232.335 37.1406 230.873 37.9905 229.354 38.5571C227.858 39.1238 226.385 39.4072 224.934 39.4072Z" fill="black"/>
<path d="M195.325 25.4331C195.325 25.9545 195.552 26.3738 196.005 26.6911C196.458 27.0085 197.036 27.2805 197.739 27.5071C198.464 27.7338 199.224 27.9718 200.017 28.2211C200.833 28.4705 201.592 28.7991 202.295 29.2071C203.02 29.5925 203.61 30.1138 204.063 30.7711C204.516 31.4285 204.743 32.2785 204.743 33.3211C204.743 34.6585 204.38 35.7805 203.655 36.6871C202.93 37.5938 201.944 38.2738 200.697 38.7271C199.45 39.1805 198.045 39.4071 196.481 39.4071C195.574 39.4071 194.611 39.3278 193.591 39.1691C192.594 39.0105 191.562 38.7951 190.497 38.5231L190.701 33.3891H193.693L194.067 36.3811L193.659 35.8031C194.112 35.9391 194.611 36.0525 195.155 36.1431C195.699 36.2111 196.175 36.2451 196.583 36.2451C197.172 36.2451 197.716 36.1658 198.215 36.0071C198.736 35.8485 199.156 35.6218 199.473 35.3271C199.813 35.0098 199.983 34.6131 199.983 34.1371C199.983 33.5931 199.756 33.1625 199.303 32.8451C198.85 32.5278 198.26 32.2558 197.535 32.0291C196.832 31.8025 196.084 31.5645 195.291 31.3151C194.52 31.0658 193.772 30.7371 193.047 30.3291C192.344 29.9211 191.766 29.3771 191.313 28.6971C190.86 28.0171 190.633 27.1331 190.633 26.0451C190.633 24.7305 190.962 23.6651 191.619 22.8491C192.276 22.0105 193.149 21.3985 194.237 21.0131C195.348 20.6278 196.56 20.4351 197.875 20.4351C198.804 20.4351 199.79 20.5258 200.833 20.7071C201.876 20.8658 202.941 21.1038 204.029 21.4211L203.859 25.9771H200.833L200.289 23.2911L200.935 24.0051C199.87 23.7105 198.929 23.5631 198.113 23.5631C197.274 23.5631 196.594 23.7331 196.073 24.0731C195.574 24.3905 195.325 24.8438 195.325 25.4331Z" fill="black"/>
<path d="M185.623 36.2111L185.283 35.8031L187.901 36.5511V38.9991H178.585V36.5511L181.203 35.8031L180.863 36.2111V23.8011L181.169 24.1071L178.585 23.3931V20.9451L185.623 20.7071V36.2111ZM183.107 18.0551C182.268 18.0551 181.588 17.8171 181.067 17.3411C180.568 16.8651 180.319 16.1851 180.319 15.3011C180.319 14.3491 180.58 13.6465 181.101 13.1931C181.645 12.7171 182.325 12.4791 183.141 12.4791C183.934 12.4791 184.592 12.7171 185.113 13.1931C185.634 13.6465 185.895 14.3378 185.895 15.2671C185.895 16.1965 185.623 16.8991 185.079 17.3751C184.558 17.8285 183.9 18.0551 183.107 18.0551Z" fill="black"/>
<path d="M156.024 38.9991V36.5511L158.88 35.7351L158.302 36.4151V23.4611L158.88 24.2431L156.024 23.3931V20.9451L162.008 20.6731L162.62 23.9371L162.008 23.6991C163.096 22.5885 164.252 21.7725 165.476 21.2511C166.7 20.7071 167.867 20.4351 168.978 20.4351C170.519 20.4351 171.8 20.9225 172.82 21.8971C173.84 22.8491 174.339 24.2998 174.316 26.2491V36.4151L173.874 35.7351L176.594 36.5511V38.9991H167.516V36.5511L170.1 35.8031L169.556 36.5171V27.2691C169.556 26.1585 169.307 25.3425 168.808 24.8211C168.332 24.2998 167.697 24.0391 166.904 24.0391C166.292 24.0391 165.623 24.2091 164.898 24.5491C164.173 24.8891 163.459 25.3991 162.756 26.0791L163.062 25.3651V36.5171L162.62 35.8031L165.102 36.5511V38.9991H156.024Z" fill="black"/>
<path d="M133.463 38.9991V36.5511L136.319 35.7351L135.741 36.4151V23.4611L136.319 24.2431L133.463 23.3931V20.9451L139.447 20.6731L140.059 23.9371L139.447 23.6991C140.535 22.5885 141.691 21.7725 142.915 21.2511C144.139 20.7071 145.307 20.4351 146.417 20.4351C147.959 20.4351 149.239 20.9225 150.259 21.8971C151.279 22.8491 151.778 24.2998 151.755 26.2491V36.4151L151.313 35.7351L154.033 36.5511V38.9991H144.955V36.5511L147.539 35.8031L146.995 36.5171V27.2691C146.995 26.1585 146.746 25.3425 146.247 24.8211C145.771 24.2998 145.137 24.0391 144.343 24.0391C143.731 24.0391 143.063 24.2091 142.337 24.5491C141.612 24.8891 140.898 25.3991 140.195 26.0791L140.501 25.3651V36.5171L140.059 35.8031L142.541 36.5511V38.9991H133.463Z" fill="black"/>
<path d="M122.487 39.4071C120.832 39.4071 119.382 39.0671 118.135 38.3871C116.888 37.6845 115.914 36.6531 115.211 35.2931C114.531 33.9105 114.191 32.2331 114.191 30.2611C114.191 28.2211 114.554 26.4758 115.279 25.0251C116.027 23.5518 117.07 22.4185 118.407 21.6251C119.744 20.8318 121.32 20.4351 123.133 20.4351C124.901 20.4351 126.34 20.7865 127.451 21.4891C128.562 22.1918 129.378 23.1551 129.899 24.3791C130.42 25.5805 130.681 26.9405 130.681 28.4591C130.681 28.8445 130.658 29.2298 130.613 29.6151C130.59 30.0005 130.545 30.4085 130.477 30.8391H118.033V28.0171H126.397L125.785 28.4591C125.808 27.5525 125.717 26.7591 125.513 26.0791C125.332 25.3765 125.014 24.8325 124.561 24.4471C124.13 24.0618 123.53 23.8691 122.759 23.8691C121.875 23.8691 121.161 24.1298 120.617 24.6511C120.073 25.1498 119.676 25.8298 119.427 26.6911C119.2 27.5525 119.087 28.5158 119.087 29.5811C119.087 30.7825 119.234 31.8591 119.529 32.8111C119.824 33.7631 120.3 34.5111 120.957 35.0551C121.637 35.5991 122.521 35.8711 123.609 35.8711C124.38 35.8711 125.207 35.7351 126.091 35.4631C126.998 35.1685 127.938 34.7378 128.913 34.1711L130.511 36.7211C129.196 37.6278 127.848 38.3078 126.465 38.7611C125.105 39.1918 123.779 39.4071 122.487 39.4071Z" fill="black"/>
<path d="M98.066 38.9991V36.5511L101.84 35.5991L100.956 36.8231V17.8171L101.942 18.5651H96.4L97.488 17.6131L96.57 21.9311H93.68V15.0631H113.128V21.9311H110.238L109.388 17.8171L110.408 18.5651H104.866L105.852 17.8171V36.8231L105.002 35.5991L108.742 36.5511V38.9991H98.066Z" fill="black"/>
<path d="M33.5003 46.9993C33.7173 46.9995 33.9127 47.1384 34.0364 47.3792L35.1614 49.5677C35.2816 49.8016 35.6247 50.039 35.8958 50.0755L38.4309 50.4163C38.7102 50.4538 38.9087 50.5889 38.9759 50.7854C39.0429 50.9819 38.9655 51.2015 38.763 51.388L36.9222 53.0823C36.7256 53.2634 36.5946 53.6472 36.6419 53.9036L37.0843 56.303C37.1349 56.5773 37.0499 56.7427 36.97 56.8333C36.8756 56.9404 36.7378 56.9993 36.5823 56.9993C36.466 56.9993 36.3429 56.9666 36.2161 56.9026L33.9534 55.761C33.8392 55.7034 33.674 55.6703 33.5003 55.6702C33.3263 55.6702 33.1605 55.7033 33.0462 55.761L30.7835 56.9026C30.487 57.0523 30.1947 57.0204 30.0296 56.8333C29.9498 56.7427 29.8647 56.5773 29.9153 56.303L30.3577 53.9036C30.4049 53.6472 30.274 53.2634 30.0774 53.0823L28.2366 51.388C28.0342 51.2015 27.9568 50.9819 28.0237 50.7854C28.0908 50.5889 28.2895 50.4538 28.5686 50.4163L31.1038 50.0755C31.3748 50.039 31.718 49.8015 31.8382 49.5677L32.9632 47.3792C33.087 47.1383 33.283 46.9993 33.5003 46.9993Z" fill="#14B8A6"/>
<path d="M20.6233 47.0042C21.1857 46.7542 21.8458 47.0045 22.0921 47.5628C22.342 48.1214 22.092 48.7815 21.5335 49.0315L4.34304 56.6721C4.19469 56.7424 4.04218 56.7737 3.89382 56.7737C3.46422 56.7737 3.05402 56.5236 2.87429 56.1136C2.62452 55.555 2.87444 54.8948 3.43289 54.6448L20.6233 47.0042Z" fill="#14B8A6" stroke="#14B8A6" stroke-width="0.5"/>
<path fill-rule="evenodd" clip-rule="evenodd" d="M38.012 7.78051C47.7192 -1.92639 63.5121 -1.92631 73.219 7.78051L73.6673 8.2395C82.9201 17.9794 82.7707 33.4319 73.2434 43.0022L73.2425 43.0032C68.383 47.8503 62.0156 50.2786 55.6272 50.2786H55.3831C52.6827 50.2466 49.9759 49.7878 47.4026 48.8782L47.3987 48.8772C47.1179 48.7758 46.8453 48.6773 46.5725 48.5745L46.5667 48.5725C44.6046 47.8068 42.7388 46.7853 40.9944 45.5227L40.9622 45.4993L40.9612 45.4983C40.9538 45.4933 40.9431 45.4862 40.9329 45.4788C40.924 45.4723 40.9114 45.4607 40.8958 45.4475C40.2257 44.9084 39.5551 44.3221 38.8655 43.6526L38.3675 43.1634L37.7522 42.5481L37.7561 42.5432C37.6115 42.4038 37.4883 42.2806 37.3597 42.1428C36.8124 41.5837 36.3246 41.0172 35.8694 40.4925L35.7532 40.3606C35.6473 40.2343 35.5584 40.1098 35.4739 39.9866C34.2702 38.3443 33.3013 36.591 32.5559 34.7542C32.3987 34.375 32.2545 33.9816 32.1233 33.596C31.2154 30.9747 30.7486 28.2208 30.7366 25.4759V25.4544C30.7052 19.066 33.1336 12.6592 38.012 7.78051ZM65.2386 5.98462C64.5832 7.15908 63.8181 8.26702 62.9348 9.27954L62.9339 9.27856C60.7752 11.7736 58.0673 13.6585 54.6927 15.0052L54.6897 15.0061C51.7208 16.173 48.6892 16.782 45.8059 17.3704C43.3241 17.8727 41.0667 18.3329 39.1829 19.0716C37.312 19.8053 35.8608 20.7937 34.9475 22.3206L34.9485 22.3216C34.678 22.7895 34.473 23.2574 34.3118 23.763C34.1334 24.3241 34.018 24.9234 33.9622 25.5813C33.8024 27.5054 34.1922 29.834 35.1663 32.5637C35.2988 32.9323 35.4362 33.2945 35.5862 33.6516L35.7415 34.0081L35.7493 34.0257L35.7552 34.0442C35.7759 34.1022 35.7942 34.1531 35.8118 34.1975L35.8665 34.3157L35.8743 34.3313L36.0794 34.7708C36.5522 35.7588 37.1035 36.7239 37.7405 37.6477L38.0598 38.097L38.0628 38.1009C38.7254 39.0262 39.4689 39.8966 40.2903 40.718C40.2978 40.7255 40.3159 40.7436 40.3274 40.7552C40.934 41.3559 41.5702 41.9127 42.2307 42.4309L42.8997 42.9378L43.3489 43.2571C44.4047 43.9852 45.5141 44.6016 46.6507 45.1165L46.8811 45.2151L46.9085 45.2229L46.9339 45.2346C49.6516 46.4221 52.5685 47.0171 55.4827 47.0315C56.7198 46.9257 57.7807 46.5952 58.6927 46.0618C60.2168 45.1545 61.2038 43.7065 61.9407 41.8391C62.6821 39.9602 63.1499 37.7123 63.6702 35.2464C64.2586 32.3629 64.8754 29.3319 66.054 26.3636C67.3971 22.9682 69.2749 20.2695 71.7708 18.1106C72.7841 17.2374 73.8919 16.4727 75.0804 15.8011C74.0546 13.7391 72.6933 11.8008 70.9739 10.0813C69.2434 8.35441 67.3086 6.99953 65.2386 5.98462ZM76.2513 18.7991C75.3865 19.3068 74.5792 19.8882 73.8411 20.5218C71.75 22.3258 70.1765 24.6042 69.011 27.5198C68.2086 29.5304 67.6912 31.6331 67.2415 33.7444L66.8059 35.8557C66.0989 39.3145 65.401 42.7774 63.7161 45.4641C66.3464 44.4135 68.8066 42.8287 70.9436 40.7014C76.8621 34.7823 78.6347 26.2719 76.2513 18.7991ZM55.6048 3.71215C50.0514 3.71216 44.5009 5.82389 40.2786 10.0461C38.149 12.1759 36.5638 14.6413 35.5032 17.262C38.1989 15.5643 41.6666 14.877 45.1302 14.1712H45.1321C47.9296 13.6117 50.7848 13.025 53.4671 11.9661L54.0061 11.7434C56.6616 10.6064 58.7624 9.09877 60.4612 7.13891C61.0929 6.39345 61.6702 5.58539 62.1888 4.72973C60.0585 4.05038 57.8355 3.71216 55.6048 3.71215Z" fill="#14B8A6" stroke="#14B8A6"/>
<path d="M26.9251 37.3059C27.4837 37.0561 28.1439 37.306 28.3938 37.8645C28.6434 38.423 28.3935 39.0833 27.8352 39.3333L10.6438 46.9739C10.4955 47.0441 10.343 47.0755 10.1946 47.0755C9.76512 47.0755 9.35488 46.8252 9.1751 46.4153C8.92513 45.8568 9.17527 45.1966 9.73369 44.9466L26.9251 37.3059Z" fill="#14B8A6" stroke="#14B8A6" stroke-width="0.5"/>
<path d="M17.8352 34.2864C18.3939 34.0365 19.054 34.2864 19.304 34.845C19.5535 35.4034 19.3037 36.0638 18.7571 36.302L1.56571 43.9427C1.41736 44.0129 1.26483 44.0442 1.11649 44.0442C0.68703 44.0442 0.27676 43.7939 0.0969599 43.3841C-0.152995 42.8256 0.0971618 42.1732 0.643835 41.927L17.8352 34.2864Z" fill="#14B8A6" stroke="#14B8A6" stroke-width="0.5"/>
<path d="M9.00029 22.9993C9.19759 22.9995 9.37515 23.1244 9.4876 23.3411L10.51 25.3108C10.6193 25.5214 10.9316 25.735 11.178 25.7678L13.4827 26.0745C13.7366 26.1083 13.9177 26.2296 13.9788 26.4065C14.0398 26.5833 13.9685 26.7807 13.7845 26.9485L12.1106 28.4739C11.932 28.637 11.8128 28.9825 11.8557 29.2132L12.2581 31.3723C12.3041 31.6193 12.2272 31.7683 12.1546 31.8499C12.0687 31.9463 11.9434 31.9993 11.802 31.9993C11.6964 31.9993 11.5843 31.97 11.469 31.9124L9.4124 30.885C9.30856 30.8331 9.15833 30.8031 9.00029 30.803C8.84208 30.803 8.69115 30.8331 8.5872 30.885L6.53056 31.9124C6.26102 32.0471 5.99513 32.0183 5.84502 31.8499C5.77251 31.7683 5.69546 31.6193 5.7415 31.3723L6.14385 29.2132C6.1867 28.9825 6.06761 28.637 5.88896 28.4739L4.21513 26.9485C4.03124 26.7808 3.95995 26.5833 4.0208 26.4065C4.08176 26.2296 4.26314 26.1083 4.51689 26.0745L6.82158 25.7678C7.06794 25.735 7.38031 25.5213 7.48955 25.3108L8.51201 23.3411C8.62455 23.1243 8.8028 22.9993 9.00029 22.9993Z" fill="#14B8A6"/>
<path d="M21.5006 11.5C21.7175 11.5002 21.9128 11.6389 22.0365 11.8796L23.1608 14.0684C23.2809 14.3024 23.6249 14.5396 23.8959 14.5761L26.4311 14.918C26.7101 14.9555 26.9092 15.089 26.9764 15.2854C27.0437 15.4819 26.9654 15.7019 26.7628 15.8884L24.9224 17.5827C24.7258 17.7637 24.5947 18.1479 24.642 18.4042L25.0835 20.8042C25.134 21.0782 25.05 21.2434 24.9701 21.334C24.8758 21.4411 24.7378 21.5 24.5823 21.5C24.4661 21.5 24.3426 21.4675 24.2159 21.4035L21.9542 20.2622C21.8399 20.2045 21.6744 20.1708 21.5006 20.1706C21.3266 20.1706 21.1602 20.2045 21.0458 20.2622L18.7841 21.4035C18.4876 21.5533 18.1949 21.5211 18.0298 21.334C17.9501 21.2434 17.866 21.0782 17.9165 20.8042L18.358 18.4042C18.4052 18.1479 18.2742 17.7637 18.0775 17.5827L16.2371 15.8884C16.0347 15.7019 15.9565 15.4819 16.0234 15.2854C16.0907 15.089 16.29 14.9555 16.5689 14.918L19.1039 14.5761C19.375 14.5396 19.719 14.3022 19.8392 14.0684L20.9635 11.8796C21.0873 11.6388 21.2833 11.5 21.5006 11.5Z" fill="#14B8A6"/>
</g>
<defs>
<clipPath id="clip0_4_60">
<rect width="431" height="57" fill="white" transform="translate(0 0.5)"/>
</clipPath>
</defs>
</svg>
