<svg width="431" height="57" viewBox="0 0 431 57" fill="none" xmlns="http://www.w3.org/2000/svg">
<g clip-path="url(#clip0_4_35)">
<path d="M427.124 38.9071C425.56 38.9071 424.37 38.4424 423.554 37.5131C422.76 36.5611 422.364 35.1558 422.364 33.2971V22.8931L422.976 23.5051H419.712V20.9551L423.044 20.1731L422.364 20.9891V16.3651L427.158 15.5151V20.9891L426.648 20.3431H431.816L431.748 23.5051H426.648L427.158 22.8931V32.6511C427.158 33.6258 427.316 34.3284 427.634 34.7591C427.951 35.1898 428.427 35.4051 429.062 35.4051C429.424 35.4051 429.821 35.3484 430.252 35.2351C430.705 35.0991 431.192 34.9291 431.714 34.7251L432.598 37.3431C430.694 38.3858 428.869 38.9071 427.124 38.9071Z" fill="white"/>
<path d="M410.977 38.9071C409.413 38.9071 407.996 38.5445 406.727 37.8191C405.48 37.0711 404.494 36.0058 403.769 34.6231C403.043 33.2405 402.681 31.5631 402.681 29.5911C402.681 27.8005 402.941 26.2931 403.463 25.0691C403.984 23.8451 404.687 22.8591 405.571 22.1111C406.455 21.3405 407.441 20.7851 408.529 20.4451C409.617 20.1051 410.739 19.9351 411.895 19.9351C412.983 19.9351 414.082 20.0711 415.193 20.3431C416.303 20.6151 417.21 20.9211 417.913 21.2611L417.777 26.2591H414.717L414.207 23.4711L414.581 23.7431C414.241 23.6071 413.821 23.5051 413.323 23.4371C412.847 23.3691 412.405 23.3351 411.997 23.3351C411.022 23.3351 410.206 23.5845 409.549 24.0831C408.914 24.5591 408.438 25.2505 408.121 26.1571C407.803 27.0411 407.645 28.0951 407.645 29.3191C407.645 30.6338 407.826 31.7445 408.189 32.6511C408.551 33.5578 409.061 34.2491 409.719 34.7251C410.399 35.1785 411.181 35.4051 412.065 35.4051C412.767 35.4051 413.538 35.2578 414.377 34.9631C415.215 34.6685 416.088 34.2265 416.995 33.6371L418.593 36.0511C417.323 37.0258 416.054 37.7511 414.785 38.2271C413.515 38.6805 412.246 38.9071 410.977 38.9071Z" fill="white"/>
<path d="M391.705 38.9071C390.05 38.9071 388.599 38.5671 387.353 37.8871C386.106 37.1845 385.131 36.1531 384.429 34.7931C383.749 33.4105 383.409 31.7331 383.409 29.7611C383.409 27.7211 383.771 25.9758 384.497 24.5251C385.245 23.0518 386.287 21.9185 387.625 21.1251C388.962 20.3318 390.537 19.9351 392.351 19.9351C394.119 19.9351 395.558 20.2865 396.669 20.9891C397.779 21.6918 398.595 22.6551 399.117 23.8791C399.638 25.0805 399.899 26.4405 399.899 27.9591C399.899 28.3445 399.876 28.7298 399.831 29.1151C399.808 29.5005 399.763 29.9085 399.695 30.3391H387.251V27.5171H395.615L395.003 27.9591C395.025 27.0525 394.935 26.2591 394.731 25.5791C394.549 24.8765 394.232 24.3325 393.779 23.9471C393.348 23.5618 392.747 23.3691 391.977 23.3691C391.093 23.3691 390.379 23.6298 389.835 24.1511C389.291 24.6498 388.894 25.3298 388.645 26.1911C388.418 27.0525 388.305 28.0158 388.305 29.0811C388.305 30.2825 388.452 31.3591 388.747 32.3111C389.041 33.2631 389.517 34.0111 390.175 34.5551C390.855 35.0991 391.739 35.3711 392.827 35.3711C393.597 35.3711 394.425 35.2351 395.309 34.9631C396.215 34.6685 397.156 34.2378 398.131 33.6711L399.729 36.2211C398.414 37.1278 397.065 37.8078 395.683 38.2611C394.323 38.6918 392.997 38.9071 391.705 38.9071Z" fill="white"/>
<path d="M360.78 38.4991V36.0511L363.636 35.2351L363.058 35.9151V22.9611L363.636 23.7431L360.78 22.8931V20.4451L366.764 20.1731L367.376 23.4371L366.764 23.1991C367.852 22.0885 369.008 21.2725 370.232 20.7511C371.456 20.2071 372.623 19.9351 373.734 19.9351C375.275 19.9351 376.556 20.4225 377.576 21.3971C378.596 22.3491 379.094 23.7998 379.072 25.7491V35.9151L378.63 35.2351L381.35 36.0511V38.4991H372.272V36.0511L374.856 35.3031L374.312 36.0171V26.7691C374.312 25.6585 374.062 24.8425 373.564 24.3211C373.088 23.7998 372.453 23.5391 371.66 23.5391C371.048 23.5391 370.379 23.7091 369.654 24.0491C368.928 24.3891 368.214 24.8991 367.512 25.5791L367.818 24.8651V36.0171L367.376 35.3031L369.858 36.0511V38.4991H360.78Z" fill="white"/>
<path d="M338.219 38.4991V36.0511L341.075 35.2351L340.497 35.9151V22.9611L341.075 23.7431L338.219 22.8931V20.4451L344.203 20.1731L344.815 23.4371L344.203 23.1991C345.291 22.0885 346.447 21.2725 347.671 20.7511C348.895 20.2071 350.062 19.9351 351.173 19.9351C352.714 19.9351 353.995 20.4225 355.015 21.3971C356.035 22.3491 356.534 23.7998 356.511 25.7491V35.9151L356.069 35.2351L358.789 36.0511V38.4991H349.711V36.0511L352.295 35.3031L351.751 36.0171V26.7691C351.751 25.6585 351.502 24.8425 351.003 24.3211C350.527 23.7998 349.892 23.5391 349.099 23.5391C348.487 23.5391 347.818 23.7091 347.093 24.0491C346.368 24.3891 345.654 24.8991 344.951 25.5791L345.257 24.8651V36.0171L344.815 35.3031L347.297 36.0511V38.4991H338.219Z" fill="white"/>
<path d="M326.994 19.9351C329.669 19.9351 331.754 20.7285 333.25 22.3151C334.746 23.9018 335.494 26.1571 335.494 29.0811C335.494 31.1211 335.131 32.8778 334.406 34.3511C333.681 35.8018 332.638 36.9238 331.278 37.7171C329.918 38.5105 328.286 38.9071 326.382 38.9071C323.707 38.9071 321.633 38.1138 320.16 36.5271C318.709 34.9405 317.984 32.6851 317.984 29.7611C317.984 27.7211 318.335 25.9758 319.038 24.5251C319.763 23.0518 320.795 21.9185 322.132 21.1251C323.469 20.3318 325.09 19.9351 326.994 19.9351ZM326.756 23.3351C325.464 23.3351 324.501 23.8451 323.866 24.8651C323.231 25.8625 322.914 27.4151 322.914 29.5231C322.914 31.6311 323.22 33.1611 323.832 34.1131C324.444 35.0425 325.373 35.5071 326.62 35.5071C327.527 35.5071 328.263 35.2805 328.83 34.8271C329.397 34.3738 329.827 33.6825 330.122 32.7531C330.417 31.8238 330.564 30.6791 330.564 29.3191C330.564 27.2565 330.247 25.7491 329.612 24.7971C328.977 23.8225 328.025 23.3351 326.756 23.3351Z" fill="white"/>
<path d="M307.092 38.9072C305.233 38.9072 303.533 38.4539 301.992 37.5472C300.451 36.6179 299.215 35.2466 298.286 33.4332C297.357 31.5972 296.892 29.3419 296.892 26.6672C296.892 24.0379 297.345 21.7939 298.252 19.9352C299.159 18.0766 300.439 16.6486 302.094 15.6512C303.749 14.6539 305.687 14.1552 307.908 14.1552C309.087 14.1552 310.299 14.3026 311.546 14.5972C312.793 14.8919 314.13 15.3339 315.558 15.9232L315.252 22.0432H312.362L311.546 18.0652L312.362 18.8472C311.569 18.5299 310.809 18.2919 310.084 18.1332C309.359 17.9746 308.69 17.8952 308.078 17.8952C306.786 17.8952 305.698 18.2239 304.814 18.8812C303.93 19.5159 303.261 20.4452 302.808 21.6692C302.355 22.8932 302.128 24.3552 302.128 26.0552C302.128 28.0499 302.389 29.7159 302.91 31.0532C303.454 32.3679 304.191 33.3539 305.12 34.0112C306.072 34.6459 307.137 34.9632 308.316 34.9632C309.2 34.9632 310.129 34.7819 311.104 34.4192C312.101 34.0339 313.099 33.4559 314.096 32.6852L315.898 35.5072C314.493 36.6406 313.031 37.4905 311.512 38.0571C310.016 38.6238 308.543 38.9072 307.092 38.9072Z" fill="white"/>
<path d="M276.473 38.9071C275.589 38.9071 274.637 38.8505 273.617 38.7371C272.597 38.6238 271.498 38.4538 270.319 38.2271V14.3591L271.067 15.6511L268.041 14.7671V12.3191L275.079 12.0471V23.2671L274.501 22.5531C275.317 21.7371 276.212 21.1025 277.187 20.6491C278.162 20.1731 279.193 19.9351 280.281 19.9351C281.596 19.9351 282.752 20.2865 283.749 20.9891C284.746 21.6691 285.528 22.6891 286.095 24.0491C286.684 25.4091 286.979 27.0865 286.979 29.0811C286.979 30.5091 286.798 31.8238 286.435 33.0251C286.095 34.2038 285.517 35.2351 284.701 36.1191C283.908 37.0031 282.831 37.6945 281.471 38.1931C280.134 38.6691 278.468 38.9071 276.473 38.9071ZM277.323 35.5071C278.955 35.5071 280.145 34.9745 280.893 33.9091C281.641 32.8438 282.015 31.3591 282.015 29.4551C282.015 28.2085 281.868 27.1431 281.573 26.2591C281.278 25.3525 280.87 24.6611 280.349 24.1851C279.828 23.6865 279.182 23.4371 278.411 23.4371C277.822 23.4371 277.198 23.5958 276.541 23.9131C275.884 24.2305 275.204 24.7178 274.501 25.3751L275.079 23.9131V36.2551L274.501 35.0991C275.566 35.3711 276.507 35.5071 277.323 35.5071Z" fill="white"/>
<path d="M253.767 38.9072C252.271 38.9072 251.013 38.4199 249.993 37.4452C248.973 36.4479 248.463 34.9519 248.463 32.9572V23.0292L248.905 23.7092L246.185 22.8932V20.4452L253.223 20.2072V32.1752C253.223 33.2406 253.461 34.0339 253.937 34.5552C254.413 35.0539 255.047 35.3032 255.841 35.3032C256.453 35.3032 257.121 35.1446 257.847 34.8272C258.572 34.4872 259.297 33.9659 260.023 33.2632L259.717 34.1132V22.9272L260.159 23.7092L257.439 22.8932V20.4452L264.477 20.2072V35.9832L263.899 35.1672L266.721 36.0512V38.4652L260.771 38.7372L260.125 35.4052L260.771 35.6432C259.66 36.7312 258.493 37.5472 257.269 38.0912C256.045 38.6352 254.877 38.9072 253.767 38.9072Z" fill="white"/>
<path d="M242.353 35.7111L242.013 35.3031L244.631 36.0511V38.4991H235.349V36.0511L237.967 35.3031L237.593 35.7111V15.1411L237.899 15.4811L235.349 14.7671V12.3191L242.353 12.0471V35.7111Z" fill="white"/>
<path d="M224.934 38.9072C223.075 38.9072 221.375 38.4539 219.834 37.5472C218.293 36.6179 217.057 35.2466 216.128 33.4332C215.199 31.5972 214.734 29.3419 214.734 26.6672C214.734 24.0379 215.187 21.7939 216.094 19.9352C217.001 18.0766 218.281 16.6486 219.936 15.6512C221.591 14.6539 223.529 14.1552 225.75 14.1552C226.929 14.1552 228.141 14.3026 229.388 14.5972C230.635 14.8919 231.972 15.3339 233.4 15.9232L233.094 22.0432H230.204L229.388 18.0652L230.204 18.8472C229.411 18.5299 228.651 18.2919 227.926 18.1332C227.201 17.9746 226.532 17.8952 225.92 17.8952C224.628 17.8952 223.54 18.2239 222.656 18.8812C221.772 19.5159 221.103 20.4452 220.65 21.6692C220.197 22.8932 219.97 24.3552 219.97 26.0552C219.97 28.0499 220.231 29.7159 220.752 31.0532C221.296 32.3679 222.033 33.3539 222.962 34.0112C223.914 34.6459 224.979 34.9632 226.158 34.9632C227.042 34.9632 227.971 34.7819 228.946 34.4192C229.943 34.0339 230.941 33.4559 231.938 32.6852L233.74 35.5072C232.335 36.6406 230.873 37.4905 229.354 38.0571C227.858 38.6238 226.385 38.9072 224.934 38.9072Z" fill="white"/>
<path d="M195.325 24.9331C195.325 25.4545 195.552 25.8738 196.005 26.1911C196.458 26.5085 197.036 26.7805 197.739 27.0071C198.464 27.2338 199.224 27.4718 200.017 27.7211C200.833 27.9705 201.592 28.2991 202.295 28.7071C203.02 29.0925 203.61 29.6138 204.063 30.2711C204.516 30.9285 204.743 31.7785 204.743 32.8211C204.743 34.1585 204.38 35.2805 203.655 36.1871C202.93 37.0938 201.944 37.7738 200.697 38.2271C199.45 38.6805 198.045 38.9071 196.481 38.9071C195.574 38.9071 194.611 38.8278 193.591 38.6691C192.594 38.5105 191.562 38.2951 190.497 38.0231L190.701 32.8891H193.693L194.067 35.8811L193.659 35.3031C194.112 35.4391 194.611 35.5525 195.155 35.6431C195.699 35.7111 196.175 35.7451 196.583 35.7451C197.172 35.7451 197.716 35.6658 198.215 35.5071C198.736 35.3485 199.156 35.1218 199.473 34.8271C199.813 34.5098 199.983 34.1131 199.983 33.6371C199.983 33.0931 199.756 32.6625 199.303 32.3451C198.85 32.0278 198.26 31.7558 197.535 31.5291C196.832 31.3025 196.084 31.0645 195.291 30.8151C194.52 30.5658 193.772 30.2371 193.047 29.8291C192.344 29.4211 191.766 28.8771 191.313 28.1971C190.86 27.5171 190.633 26.6331 190.633 25.5451C190.633 24.2305 190.962 23.1651 191.619 22.3491C192.276 21.5105 193.149 20.8985 194.237 20.5131C195.348 20.1278 196.56 19.9351 197.875 19.9351C198.804 19.9351 199.79 20.0258 200.833 20.2071C201.876 20.3658 202.941 20.6038 204.029 20.9211L203.859 25.4771H200.833L200.289 22.7911L200.935 23.5051C199.87 23.2105 198.929 23.0631 198.113 23.0631C197.274 23.0631 196.594 23.2331 196.073 23.5731C195.574 23.8905 195.325 24.3438 195.325 24.9331Z" fill="white"/>
<path d="M185.623 35.7111L185.283 35.3031L187.901 36.0511V38.4991H178.585V36.0511L181.203 35.3031L180.863 35.7111V23.3011L181.169 23.6071L178.585 22.8931V20.4451L185.623 20.2071V35.7111ZM183.107 17.5551C182.268 17.5551 181.588 17.3171 181.067 16.8411C180.568 16.3651 180.319 15.6851 180.319 14.8011C180.319 13.8491 180.58 13.1465 181.101 12.6931C181.645 12.2171 182.325 11.9791 183.141 11.9791C183.934 11.9791 184.592 12.2171 185.113 12.6931C185.634 13.1465 185.895 13.8378 185.895 14.7671C185.895 15.6965 185.623 16.3991 185.079 16.8751C184.558 17.3285 183.9 17.5551 183.107 17.5551Z" fill="white"/>
<path d="M156.024 38.4991V36.0511L158.88 35.2351L158.302 35.9151V22.9611L158.88 23.7431L156.024 22.8931V20.4451L162.008 20.1731L162.62 23.4371L162.008 23.1991C163.096 22.0885 164.252 21.2725 165.476 20.7511C166.7 20.2071 167.867 19.9351 168.978 19.9351C170.519 19.9351 171.8 20.4225 172.82 21.3971C173.84 22.3491 174.339 23.7998 174.316 25.7491V35.9151L173.874 35.2351L176.594 36.0511V38.4991H167.516V36.0511L170.1 35.3031L169.556 36.0171V26.7691C169.556 25.6585 169.307 24.8425 168.808 24.3211C168.332 23.7998 167.697 23.5391 166.904 23.5391C166.292 23.5391 165.623 23.7091 164.898 24.0491C164.173 24.3891 163.459 24.8991 162.756 25.5791L163.062 24.8651V36.0171L162.62 35.3031L165.102 36.0511V38.4991H156.024Z" fill="white"/>
<path d="M133.463 38.4991V36.0511L136.319 35.2351L135.741 35.9151V22.9611L136.319 23.7431L133.463 22.8931V20.4451L139.447 20.1731L140.059 23.4371L139.447 23.1991C140.535 22.0885 141.691 21.2725 142.915 20.7511C144.139 20.2071 145.307 19.9351 146.417 19.9351C147.959 19.9351 149.239 20.4225 150.259 21.3971C151.279 22.3491 151.778 23.7998 151.755 25.7491V35.9151L151.313 35.2351L154.033 36.0511V38.4991H144.955V36.0511L147.539 35.3031L146.995 36.0171V26.7691C146.995 25.6585 146.746 24.8425 146.247 24.3211C145.771 23.7998 145.137 23.5391 144.343 23.5391C143.731 23.5391 143.063 23.7091 142.337 24.0491C141.612 24.3891 140.898 24.8991 140.195 25.5791L140.501 24.8651V36.0171L140.059 35.3031L142.541 36.0511V38.4991H133.463Z" fill="white"/>
<path d="M122.487 38.9071C120.832 38.9071 119.382 38.5671 118.135 37.8871C116.888 37.1845 115.914 36.1531 115.211 34.7931C114.531 33.4105 114.191 31.7331 114.191 29.7611C114.191 27.7211 114.554 25.9758 115.279 24.5251C116.027 23.0518 117.07 21.9185 118.407 21.1251C119.744 20.3318 121.32 19.9351 123.133 19.9351C124.901 19.9351 126.34 20.2865 127.451 20.9891C128.562 21.6918 129.378 22.6551 129.899 23.8791C130.42 25.0805 130.681 26.4405 130.681 27.9591C130.681 28.3445 130.658 28.7298 130.613 29.1151C130.59 29.5005 130.545 29.9085 130.477 30.3391H118.033V27.5171H126.397L125.785 27.9591C125.808 27.0525 125.717 26.2591 125.513 25.5791C125.332 24.8765 125.014 24.3325 124.561 23.9471C124.13 23.5618 123.53 23.3691 122.759 23.3691C121.875 23.3691 121.161 23.6298 120.617 24.1511C120.073 24.6498 119.676 25.3298 119.427 26.1911C119.2 27.0525 119.087 28.0158 119.087 29.0811C119.087 30.2825 119.234 31.3591 119.529 32.3111C119.824 33.2631 120.3 34.0111 120.957 34.5551C121.637 35.0991 122.521 35.3711 123.609 35.3711C124.38 35.3711 125.207 35.2351 126.091 34.9631C126.998 34.6685 127.938 34.2378 128.913 33.6711L130.511 36.2211C129.196 37.1278 127.848 37.8078 126.465 38.2611C125.105 38.6918 123.779 38.9071 122.487 38.9071Z" fill="white"/>
<path d="M98.066 38.4991V36.0511L101.84 35.0991L100.956 36.3231V17.3171L101.942 18.0651H96.4L97.488 17.1131L96.57 21.4311H93.68V14.5631H113.128V21.4311H110.238L109.388 17.3171L110.408 18.0651H104.866L105.852 17.3171V36.3231L105.002 35.0991L108.742 36.0511V38.4991H98.066Z" fill="white"/>
<path d="M33.5003 46.4993C33.7173 46.4995 33.9127 46.6384 34.0364 46.8792L35.1614 49.0677C35.2816 49.3016 35.6247 49.539 35.8958 49.5755L38.4309 49.9163C38.7102 49.9538 38.9087 50.0889 38.9759 50.2854C39.0429 50.4819 38.9655 50.7015 38.763 50.888L36.9222 52.5823C36.7256 52.7634 36.5946 53.1472 36.6419 53.4036L37.0843 55.803C37.1349 56.0773 37.0499 56.2427 36.97 56.3333C36.8756 56.4404 36.7378 56.4993 36.5823 56.4993C36.466 56.4993 36.3429 56.4666 36.2161 56.4026L33.9534 55.261C33.8392 55.2034 33.674 55.1703 33.5003 55.1702C33.3263 55.1702 33.1605 55.2033 33.0462 55.261L30.7835 56.4026C30.487 56.5523 30.1947 56.5204 30.0296 56.3333C29.9498 56.2427 29.8647 56.0773 29.9153 55.803L30.3577 53.4036C30.4049 53.1472 30.274 52.7634 30.0774 52.5823L28.2366 50.888C28.0342 50.7015 27.9568 50.4819 28.0237 50.2854C28.0908 50.0889 28.2895 49.9538 28.5686 49.9163L31.1038 49.5755C31.3748 49.539 31.718 49.3015 31.8382 49.0677L32.9632 46.8792C33.087 46.6383 33.283 46.4993 33.5003 46.4993Z" fill="#14B8A6"/>
<path d="M20.6233 46.5042C21.1857 46.2542 21.8458 46.5045 22.0921 47.0628C22.342 47.6214 22.092 48.2815 21.5335 48.5315L4.34304 56.1721C4.19469 56.2424 4.04218 56.2737 3.89382 56.2737C3.46422 56.2737 3.05402 56.0236 2.87429 55.6136C2.62452 55.055 2.87444 54.3948 3.43289 54.1448L20.6233 46.5042Z" fill="#14B8A6" stroke="#14B8A6" stroke-width="0.5"/>
<path fill-rule="evenodd" clip-rule="evenodd" d="M38.012 7.28051C47.7192 -2.42639 63.5121 -2.42631 73.219 7.28051L73.6673 7.7395C82.9201 17.4794 82.7707 32.9319 73.2434 42.5022L73.2425 42.5032C68.383 47.3503 62.0156 49.7786 55.6272 49.7786H55.3831C52.6827 49.7466 49.9759 49.2878 47.4026 48.3782L47.3987 48.3772C47.1179 48.2758 46.8453 48.1773 46.5725 48.0745L46.5667 48.0725C44.6046 47.3068 42.7388 46.2853 40.9944 45.0227L40.9622 44.9993L40.9612 44.9983C40.9538 44.9933 40.9431 44.9862 40.9329 44.9788C40.924 44.9723 40.9114 44.9607 40.8958 44.9475C40.2257 44.4084 39.5551 43.8221 38.8655 43.1526L38.3675 42.6634L37.7522 42.0481L37.7561 42.0432C37.6115 41.9038 37.4883 41.7806 37.3597 41.6428C36.8124 41.0837 36.3246 40.5172 35.8694 39.9925L35.7532 39.8606C35.6473 39.7343 35.5584 39.6098 35.4739 39.4866C34.2702 37.8443 33.3013 36.091 32.5559 34.2542C32.3987 33.875 32.2545 33.4816 32.1233 33.096C31.2154 30.4747 30.7486 27.7208 30.7366 24.9759V24.9544C30.7052 18.566 33.1336 12.1592 38.012 7.28051ZM65.2386 5.48462C64.5832 6.65908 63.8181 7.76702 62.9348 8.77954L62.9339 8.77856C60.7752 11.2736 58.0673 13.1585 54.6927 14.5052L54.6897 14.5061C51.7208 15.673 48.6892 16.282 45.8059 16.8704C43.3241 17.3727 41.0667 17.8329 39.1829 18.5716C37.312 19.3053 35.8608 20.2937 34.9475 21.8206L34.9485 21.8216C34.678 22.2895 34.473 22.7574 34.3118 23.263C34.1334 23.8241 34.018 24.4234 33.9622 25.0813C33.8024 27.0054 34.1922 29.334 35.1663 32.0637C35.2988 32.4323 35.4362 32.7945 35.5862 33.1516L35.7415 33.5081L35.7493 33.5257L35.7552 33.5442C35.7759 33.6022 35.7942 33.6531 35.8118 33.6975L35.8665 33.8157L35.8743 33.8313L36.0794 34.2708C36.5522 35.2588 37.1035 36.2239 37.7405 37.1477L38.0598 37.597L38.0628 37.6009C38.7254 38.5262 39.4689 39.3966 40.2903 40.218C40.2978 40.2255 40.3159 40.2436 40.3274 40.2552C40.934 40.8559 41.5702 41.4127 42.2307 41.9309L42.8997 42.4378L43.3489 42.7571C44.4047 43.4852 45.5141 44.1016 46.6507 44.6165L46.8811 44.7151L46.9085 44.7229L46.9339 44.7346C49.6516 45.9221 52.5685 46.5171 55.4827 46.5315C56.7198 46.4257 57.7807 46.0952 58.6927 45.5618C60.2168 44.6545 61.2038 43.2065 61.9407 41.3391C62.6821 39.4602 63.1499 37.2123 63.6702 34.7464C64.2586 31.8629 64.8754 28.8319 66.054 25.8636C67.3971 22.4682 69.2749 19.7695 71.7708 17.6106C72.7841 16.7374 73.8919 15.9727 75.0804 15.3011C74.0546 13.2391 72.6933 11.3008 70.9739 9.58129C69.2434 7.85441 67.3086 6.49953 65.2386 5.48462ZM76.2513 18.2991C75.3865 18.8068 74.5792 19.3882 73.8411 20.0218C71.75 21.8258 70.1765 24.1042 69.011 27.0198C68.2086 29.0304 67.6912 31.1331 67.2415 33.2444L66.8059 35.3557C66.0989 38.8145 65.401 42.2774 63.7161 44.9641C66.3464 43.9135 68.8066 42.3287 70.9436 40.2014C76.8621 34.2823 78.6347 25.7719 76.2513 18.2991ZM55.6048 3.21215C50.0514 3.21216 44.5009 5.32389 40.2786 9.54614C38.149 11.6759 36.5638 14.1413 35.5032 16.762C38.1989 15.0643 41.6666 14.377 45.1302 13.6712H45.1321C47.9296 13.1117 50.7848 12.525 53.4671 11.4661L54.0061 11.2434C56.6616 10.1064 58.7624 8.59877 60.4612 6.63891C61.0929 5.89345 61.6702 5.08539 62.1888 4.22973C60.0585 3.55038 57.8355 3.21216 55.6048 3.21215Z" fill="#14B8A6" stroke="#14B8A6"/>
<path d="M26.9251 36.8059C27.4837 36.5561 28.1439 36.806 28.3938 37.3645C28.6434 37.923 28.3935 38.5833 27.8352 38.8333L10.6438 46.4739C10.4955 46.5441 10.343 46.5755 10.1946 46.5755C9.76512 46.5755 9.35488 46.3252 9.1751 45.9153C8.92513 45.3568 9.17527 44.6966 9.73369 44.4466L26.9251 36.8059Z" fill="#14B8A6" stroke="#14B8A6" stroke-width="0.5"/>
<path d="M17.8352 33.7864C18.3939 33.5365 19.054 33.7864 19.304 34.345C19.5535 34.9034 19.3037 35.5638 18.7571 35.802L1.56571 43.4427C1.41736 43.5129 1.26483 43.5442 1.11649 43.5442C0.68703 43.5442 0.27676 43.2939 0.0969599 42.8841C-0.152995 42.3256 0.0971618 41.6732 0.643835 41.427L17.8352 33.7864Z" fill="#14B8A6" stroke="#14B8A6" stroke-width="0.5"/>
<path d="M9.00029 22.4993C9.19759 22.4995 9.37515 22.6244 9.4876 22.8411L10.51 24.8108C10.6193 25.0214 10.9316 25.235 11.178 25.2678L13.4827 25.5745C13.7366 25.6083 13.9177 25.7296 13.9788 25.9065C14.0398 26.0833 13.9685 26.2807 13.7845 26.4485L12.1106 27.9739C11.932 28.137 11.8128 28.4825 11.8557 28.7132L12.2581 30.8723C12.3041 31.1193 12.2272 31.2683 12.1546 31.3499C12.0687 31.4463 11.9434 31.4993 11.802 31.4993C11.6964 31.4993 11.5843 31.47 11.469 31.4124L9.4124 30.385C9.30856 30.3331 9.15833 30.3031 9.00029 30.303C8.84208 30.303 8.69115 30.3331 8.5872 30.385L6.53056 31.4124C6.26102 31.5471 5.99513 31.5183 5.84502 31.3499C5.77251 31.2683 5.69546 31.1193 5.7415 30.8723L6.14385 28.7132C6.1867 28.4825 6.06761 28.137 5.88896 27.9739L4.21513 26.4485C4.03124 26.2808 3.95995 26.0833 4.0208 25.9065C4.08176 25.7296 4.26314 25.6083 4.51689 25.5745L6.82158 25.2678C7.06794 25.235 7.38031 25.0213 7.48955 24.8108L8.51201 22.8411C8.62455 22.6243 8.8028 22.4993 9.00029 22.4993Z" fill="#14B8A6"/>
<path d="M21.5006 11C21.7175 11.0002 21.9128 11.1389 22.0365 11.3796L23.1608 13.5684C23.2809 13.8024 23.6249 14.0396 23.8959 14.0761L26.4311 14.418C26.7101 14.4555 26.9092 14.589 26.9764 14.7854C27.0437 14.9819 26.9654 15.2019 26.7628 15.3884L24.9224 17.0827C24.7258 17.2637 24.5947 17.6479 24.642 17.9042L25.0835 20.3042C25.134 20.5782 25.05 20.7434 24.9701 20.834C24.8758 20.9411 24.7378 21 24.5823 21C24.4661 21 24.3426 20.9675 24.2159 20.9035L21.9542 19.7622C21.8399 19.7045 21.6744 19.6708 21.5006 19.6706C21.3266 19.6706 21.1602 19.7045 21.0458 19.7622L18.7841 20.9035C18.4876 21.0533 18.1949 21.0211 18.0298 20.834C17.9501 20.7434 17.866 20.5782 17.9165 20.3042L18.358 17.9042C18.4052 17.6479 18.2742 17.2637 18.0775 17.0827L16.2371 15.3884C16.0347 15.2019 15.9565 14.9819 16.0234 14.7854C16.0907 14.589 16.29 14.4555 16.5689 14.418L19.1039 14.0761C19.375 14.0396 19.719 13.8022 19.8392 13.5684L20.9635 11.3796C21.0873 11.1388 21.2833 11 21.5006 11Z" fill="#14B8A6"/>
</g>
<defs>
<clipPath id="clip0_4_35">
<rect width="431" height="57" fill="white"/>
</clipPath>
</defs>
</svg>
